<svg xmlns="http://www.w3.org/2000/svg" style="display: none;">

  <symbol id="curseforge-logo-footer" viewBox="0 0 40 40">
    <path d="M29.4889 15.285C29.4889 15.285 36.8392 14.1158 38 10.7058H26.7401V8H2L5.0477 11.5674V15.2225C5.0477 15.2225 12.7377 14.8191 15.7124 17.0946C19.7842 20.9017 11.1328 26.048 11.1328 26.048L9.64927 31C11.9691 28.7718 16.3905 25.8892 24.4969 26.0282C21.412 27.0117 18.3101 28.5478 15.8952 31H32.2824L30.7393 26.048C30.7393 26.048 18.8623 18.9833 29.4889 15.2855V15.285Z" fill="white"/>
  </symbol>


  <!-- platforms -->
  <symbol id="icon-windows" viewBox="0 0 20 20">
    <path d="M18.75 1.25L9.25 2.60723V9.66069L18.75 9.51674V1.25Z" fill="white"/>
    <path d="M1.25 3.69729L8.39583 2.71022V9.61973L1.25 9.66086V3.69729Z" fill="white"/>
    <path d="M8.39583 10.4215L1.25 10.3804V16.3645L8.39583 17.3722V10.4215Z" fill="white"/>
    <path d="M18.75 10.4833H9.25V17.4133L18.75 18.75V10.4833Z" fill="white"/>
  </symbol>

  <!--cf website=use -->
  <symbol id="cfLogo" viewBox="0 0 128 12">
    <path d="M11.2939 10.4712C11.1322 10.579 10.8627 10.7406 10.5932 10.8484C10.2699 10.9562 9.9465 11.064 9.56924 11.1718C9.19198 11.2796 8.81471 11.3335 8.43745 11.3874C8.06019 11.4413 7.68293 11.4952 7.35956 11.4952C6.49725 11.4952 5.63493 11.3335 4.88041 11.064C4.12589 10.7945 3.42526 10.4173 2.83242 9.93223C2.23958 9.44718 1.80842 8.85434 1.48505 8.15371C1.16168 7.45308 1 6.69856 1 5.83624C1 5.02782 1.16168 4.2733 1.48505 3.57267C1.80842 2.87204 2.23958 2.2253 2.83242 1.68636C3.42526 1.14741 4.07199 0.716256 4.88041 0.392888C5.68883 0.0695207 6.49725 -0.0921631 7.41346 -0.0921631C7.9524 -0.0921631 8.43745 -0.0382685 8.86861 0.0695207C9.24587 0.17731 9.62313 0.285099 9.89261 0.392888C10.216 0.500677 10.4316 0.554572 10.6471 0.608467C10.8627 0.662361 11.0783 0.608467 11.24 0.500677L11.4017 3.35709H10.9166C10.701 2.60257 10.3238 2.11752 9.73092 1.79415C9.13808 1.47078 8.43745 1.3091 7.62903 1.3091C7.03619 1.3091 6.49725 1.41689 6.0122 1.68636C5.52715 1.95583 5.09599 2.2792 4.77262 2.65646C4.44925 3.08762 4.17978 3.51877 4.0181 4.11162C3.85641 4.65056 3.74862 5.2434 3.80252 5.83624C3.85641 6.48298 3.9642 7.02192 4.23368 7.56087C4.44925 8.09981 4.77262 8.53097 5.14988 8.90823C5.52714 9.2855 5.9583 9.55497 6.49725 9.77055C6.9823 9.98612 7.52125 10.0939 8.06019 10.0939C8.49135 10.0939 8.86861 10.04 9.19198 9.98613C9.51534 9.93223 9.83871 9.82444 10.1082 9.60886C10.3777 9.44718 10.5932 9.17771 10.7549 8.90823C10.9166 8.63876 11.0244 8.2076 11.0783 7.72255H11.6172L11.2939 10.4712Z" fill="white"/>
    <path d="M20.9411 10.7406C20.3483 11.0101 19.7554 11.1718 19.1087 11.1718C18.6236 11.1718 18.1386 11.1179 17.7074 10.9562C17.2763 10.7945 16.899 10.579 16.5756 10.2556C16.2523 9.93223 16.0367 9.55497 15.8211 9.06991C15.6594 8.58486 15.5517 7.99202 15.5517 7.2375V2.17141C15.5517 1.68636 15.4978 1.36299 15.3361 1.14741C15.1744 0.931831 14.7971 0.824042 14.2043 0.716253C14.1504 0.716253 14.0426 0.716253 13.9348 0.716253V0.177307L14.3121 0.231202C14.7432 0.285096 15.0666 0.285096 15.2822 0.338991C15.4978 0.338991 15.7133 0.338991 15.9828 0.338991H17.8691C18.0847 0.338991 18.3542 0.338991 18.5697 0.338991C18.7853 0.338991 19.1087 0.285096 19.5399 0.231202L19.8632 0.177307L19.8093 0.716253C19.7015 0.716253 19.6476 0.716253 19.5399 0.716253C18.947 0.770148 18.5697 0.931831 18.4081 1.14741C18.2464 1.36299 18.1925 1.68636 18.1925 2.17141V7.2375C18.1925 8.15371 18.4081 8.80044 18.7853 9.1777C19.1626 9.55497 19.6476 9.77054 20.1866 9.77054C20.6177 9.77054 21.0489 9.60886 21.4801 9.33939C21.8573 9.06991 22.1807 8.69265 22.4502 8.2076V2.17141C22.4502 1.68636 22.3963 1.36299 22.2346 1.14741C22.0729 0.931831 21.6956 0.824042 21.1028 0.716253C21.0489 0.716253 20.9411 0.716253 20.8333 0.716253V0.177307L21.2106 0.231202C21.6417 0.285096 21.9651 0.285096 22.1807 0.338991C22.3963 0.338991 22.6118 0.338991 22.8813 0.338991H24.7676C24.9832 0.338991 25.2527 0.338991 25.4683 0.338991C25.6838 0.338991 26.0072 0.285096 26.4384 0.231202L26.8156 0.177307L26.7617 0.716253C26.6539 0.716253 26.6 0.716253 26.4923 0.716253C25.7377 0.824042 25.3605 0.985726 25.2527 1.14741C25.091 1.36299 25.0371 1.68636 25.0371 2.17141V9.12381C25.0371 9.60886 25.091 9.93223 25.2527 10.1478C25.4144 10.3634 25.7916 10.4712 26.3845 10.579C26.4923 10.579 26.5461 10.579 26.6539 10.579L26.7078 11.1718H26.3306C25.8994 11.1179 25.576 11.1179 25.3605 11.064C25.1449 11.064 24.9293 11.0101 24.6598 11.0101H22.3963V9.55497C22.019 10.04 21.534 10.4712 20.9411 10.7406Z" fill="white"/>
    <path d="M38.0255 5.78234C38.3489 6.2135 38.6723 6.69855 38.9956 7.1836C39.319 7.66866 39.6424 8.15371 39.9118 8.58486C40.1813 9.01602 40.4508 9.39328 40.6125 9.66276C40.8281 9.98612 40.9358 10.1478 40.9897 10.2017C41.0436 10.3095 41.1514 10.4712 41.2592 10.6329C41.367 10.7945 41.4748 10.9562 41.5826 11.1179C41.6904 11.2796 41.7443 11.3874 41.7982 11.4952C41.852 11.603 41.852 11.6569 41.7982 11.7107C41.6904 11.8185 41.5287 11.8185 41.3131 11.7646C41.0975 11.6569 40.7742 11.4413 40.343 11.064L35.2769 6.53687C34.8458 6.48297 34.4685 6.48297 34.1451 6.42908V9.1777C34.1451 9.66276 34.199 9.98612 34.3607 10.2017C34.5224 10.4173 34.8996 10.5251 35.4925 10.6329C35.6003 10.6329 35.6542 10.6329 35.762 10.6329L35.8159 11.1718H35.4925C35.0613 11.1179 34.738 11.1179 34.5224 11.064C34.3068 11.064 34.0912 11.0101 33.8218 11.0101H31.9354C31.7199 11.0101 31.4504 11.0101 31.2348 11.064C31.0192 11.064 30.6959 11.1179 30.2647 11.1718H29.8875V10.6329C29.9952 10.6329 30.103 10.6329 30.1569 10.6329C30.7498 10.579 31.127 10.4173 31.2887 10.2017C31.4504 9.98612 31.5043 9.66276 31.5043 9.1777V2.17141C31.5043 1.68636 31.4504 1.36299 31.2887 1.14741C31.127 0.931831 30.7498 0.824042 30.1569 0.716253C30.103 0.716253 29.9952 0.716253 29.8875 0.716253V0.177307L30.2647 0.231202C30.6959 0.285096 31.0192 0.285096 31.2348 0.338991C31.4504 0.338991 31.6121 0.338991 31.7199 0.338991C31.8277 0.338991 32.0432 0.338991 32.4205 0.338991C32.7439 0.338991 33.1211 0.338991 33.6062 0.338991C34.0373 0.338991 34.4685 0.338991 34.9535 0.338991C35.3847 0.338991 35.762 0.338991 35.9775 0.338991C37.2171 0.338991 38.1872 0.608464 38.8879 1.14741C39.5885 1.68636 39.9118 2.33309 39.9118 3.08762C39.9118 3.68046 39.7502 4.2733 39.4268 4.75835C39.1034 5.2434 38.5106 5.51287 38.0255 5.78234ZM34.9535 5.62066C35.5464 5.62066 36.0314 5.40508 36.4626 5.02782C36.8938 4.65056 37.1093 4.05772 37.1093 3.35709C37.1093 2.81814 36.9476 2.38699 36.6243 1.95583C36.3009 1.52467 35.8159 1.30909 35.1152 1.30909C34.7919 1.30909 34.5224 1.30909 34.3607 1.41688C34.1451 1.47078 34.0912 1.63246 34.0912 1.90193V5.56677C34.5224 5.62066 34.7919 5.62066 34.9535 5.62066Z" fill="white"/>
    <path d="M50.7987 8.2076C50.7987 8.58487 50.6909 8.96213 50.4753 9.33939C50.2597 9.71665 49.9902 10.04 49.613 10.3634C49.2357 10.6868 48.8046 10.9562 48.3195 11.1179C47.8345 11.2796 47.2416 11.3874 46.6488 11.3874C45.9481 11.3874 45.3014 11.2796 44.7625 11.064C44.2235 10.8484 43.7924 10.7407 43.5229 10.6329L43.0378 7.72255H43.6307C43.8463 8.53097 44.1157 9.17771 44.5469 9.55497C44.978 9.93223 45.517 10.1478 46.2715 10.1478C46.9183 10.1478 47.4033 10.04 47.7806 9.71665C48.1578 9.44718 48.3195 9.06992 48.3195 8.53097C48.3195 8.04592 48.1039 7.61476 47.6189 7.2375C47.1877 6.86024 46.4871 6.42908 45.5709 5.94403C44.8703 5.56677 44.2774 5.08172 43.8463 4.54277C43.4151 4.00383 43.1995 3.41099 43.1995 2.76425C43.1995 1.84804 43.5229 1.14741 44.1157 0.608468C44.7625 0.0695218 45.5709 -0.199951 46.6488 -0.199951C46.9721 -0.199951 47.2416 -0.199951 47.5111 -0.092162C47.7806 -0.0382674 48.05 0.0156272 48.2656 0.0695218C48.5351 0.123416 48.7507 0.177311 48.9662 0.231206C49.1818 0.2851 49.4513 0.2851 49.7747 0.2851L50.1519 2.76425H49.6669C49.3435 2.06362 48.9662 1.57857 48.4812 1.3091C47.9961 1.03962 47.565 0.931835 47.0799 0.931835C46.5949 0.931835 46.2176 1.03962 45.9482 1.3091C45.6787 1.57857 45.517 1.90194 45.517 2.2792C45.517 2.49478 45.5709 2.65646 45.7326 2.81815C45.8943 2.97983 46.0559 3.14151 46.2715 3.3032C46.4871 3.46488 46.7027 3.62656 46.9721 3.73435C47.2416 3.84214 47.4572 4.00383 47.6728 4.11162C48.6968 4.65056 49.4513 5.2434 49.9902 5.83624C50.5292 6.53687 50.7987 7.2914 50.7987 8.2076Z" fill="white"/>
    <path d="M57.0505 5.78234V8.69265C57.0505 9.12381 57.1044 9.39328 57.1582 9.50107C57.2121 9.60886 57.4816 9.60886 57.8589 9.60886C57.9128 9.60886 58.0206 9.60886 58.1822 9.60886C58.3439 9.60886 58.5595 9.60886 58.7751 9.60886C58.9907 9.60886 59.1523 9.60886 59.314 9.60886H59.5835C59.9069 9.60886 60.1763 9.60886 60.3919 9.55497C60.6075 9.50107 60.7692 9.44718 60.9309 9.33939C61.0926 9.2316 61.2542 9.06991 61.362 8.90823C61.5237 8.74655 61.6315 8.53097 61.8471 8.26149L62.4938 8.2076C62.3321 8.53097 62.1704 8.80044 62.0627 9.06991C61.9549 9.33939 61.901 9.60886 61.8471 9.87833C61.7932 10.1478 61.7393 10.3634 61.6854 10.579C61.6315 10.7945 61.6315 10.9562 61.5776 11.1179C61.5237 11.1179 61.362 11.1179 61.0926 11.1179C60.8231 11.1179 60.4458 11.1179 60.0147 11.064C59.5835 11.064 59.1523 11.064 58.829 11.064H54.8408C54.6252 11.064 54.3557 11.064 54.1402 11.1179C53.9246 11.1179 53.6012 11.1718 53.1701 11.2257H52.8467V10.6329C52.9006 10.6329 52.9545 10.6329 53.0084 10.6329C53.0623 10.6329 53.1162 10.6329 53.1162 10.6329C53.709 10.579 54.0863 10.4712 54.2479 10.2556C54.4096 10.04 54.4635 9.71665 54.4635 9.2316V2.2253C54.4635 1.74025 54.4096 1.41688 54.2479 1.2013C54.0863 0.985726 53.709 0.877937 53.1162 0.824042C53.0623 0.824042 53.0084 0.824042 53.0084 0.824042C52.9545 0.824042 52.9006 0.824042 52.8467 0.824042V0.177307L53.1701 0.231202C53.6012 0.285096 53.9246 0.285096 54.1402 0.338991C54.3557 0.338991 54.5713 0.338991 54.8408 0.338991H61.5776L61.9549 2.97983H61.4159C61.362 2.71035 61.2542 2.49477 61.2003 2.33309C61.1464 2.17141 61.0387 2.06362 60.9309 1.95583C60.8231 1.84804 60.7153 1.79414 60.5536 1.79414C60.3919 1.79414 60.1763 1.74025 59.9069 1.74025L57.0505 1.68636V4.48887H58.9907C59.1523 4.48887 59.314 4.38108 59.4218 4.2194C59.5296 4.05772 59.6374 3.89603 59.6913 3.73435H59.9069C60.1763 4.38108 60.6075 4.81224 61.2542 5.08171V5.29729C60.6075 5.56677 60.1763 5.99792 59.9069 6.64466H59.7452C59.6913 6.48297 59.5835 6.32129 59.4757 6.15961C59.3679 5.99792 59.2062 5.89013 59.0446 5.89013H57.0505V5.78234Z" fill="white"/>
    <path d="M69.5538 10.2017C69.7155 10.4173 70.0928 10.5251 70.6856 10.6329C70.7934 10.6329 70.8473 10.6329 70.9551 10.6329L71.009 11.2257H70.6856C70.2544 11.1718 69.9311 11.1718 69.7155 11.1179C69.4999 11.1179 69.2843 11.064 69.0149 11.064H67.1286C66.913 11.064 66.6435 11.064 66.4279 11.1179C66.2124 11.1179 65.889 11.1718 65.4578 11.2257H65.0806V10.6329C65.1884 10.6329 65.2961 10.6329 65.35 10.6329C65.9429 10.579 66.3201 10.4173 66.4818 10.2017C66.6435 9.98612 66.6974 9.66276 66.6974 9.1777V2.2253C66.6974 1.74025 66.6435 1.41688 66.4818 1.2013C66.3201 0.985726 65.9429 0.877937 65.35 0.824042C65.2961 0.824042 65.2423 0.824042 65.2423 0.824042C65.1884 0.824042 65.1345 0.824042 65.0806 0.824042V0.177307L65.4039 0.231202C65.8351 0.285096 66.1585 0.285096 66.374 0.338991C66.5896 0.338991 66.8052 0.338991 67.0747 0.338991H73.8115L74.1888 2.97983H73.6498C73.5959 2.71035 73.4881 2.49477 73.4342 2.33309C73.3803 2.17141 73.2725 2.06362 73.1648 1.95583C73.057 1.84804 72.9492 1.79414 72.7875 1.79414C72.6258 1.79414 72.4102 1.74025 72.1408 1.74025L69.2843 1.68636V4.48887H71.2246C71.3862 4.48887 71.5479 4.38108 71.6557 4.2194C71.7635 4.05772 71.8713 3.89603 71.9252 3.73435H72.1408C72.4102 4.38108 72.8414 4.81224 73.4881 5.08171V5.29729C72.8414 5.56677 72.4102 5.99792 72.1408 6.64466H71.9252C71.8713 6.48297 71.7635 6.32129 71.6557 6.15961C71.5479 5.99792 71.3862 5.89013 71.2246 5.89013H69.2843V9.2316C69.3382 9.66275 69.446 9.98612 69.5538 10.2017Z" fill="#F16436"/>
    <path d="M88.6865 5.51288C88.6865 6.32129 88.5248 7.07582 88.2014 7.77645C87.878 8.47708 87.4469 9.12381 86.9079 9.66276C86.369 10.2017 85.6684 10.6329 84.9138 10.9562C84.1593 11.2796 83.297 11.4413 82.3808 11.4413C81.5185 11.4413 80.6562 11.2796 79.9017 11.0101C79.1471 10.7407 78.4465 10.3634 77.8537 9.87834C77.2608 9.39329 76.8297 8.80045 76.5063 8.09982C76.1829 7.39919 76.0212 6.64466 76.0212 5.78235C76.0212 4.97393 76.1829 4.2194 76.5063 3.51877C76.8297 2.81815 77.2608 2.17141 77.8537 1.63246C78.4465 1.09352 79.0932 0.662362 79.9017 0.338994C80.7101 0.0156266 81.5185 -0.146057 82.4347 -0.146057C83.297 -0.146057 84.1593 -0.0382679 84.9138 0.231205C85.6684 0.500678 86.369 0.87794 86.9079 1.36299C87.5008 1.84804 87.9319 2.44088 88.2553 3.14151C88.5248 3.89604 88.6865 4.65056 88.6865 5.51288ZM85.9917 5.67456C85.9378 5.08172 85.8301 4.54277 85.6145 4.05772C85.3989 3.57267 85.1294 3.08762 84.7522 2.71036C84.3749 2.33309 83.9976 2.00973 83.5126 1.79415C83.0275 1.57857 82.5425 1.52468 81.9496 1.52468C81.4107 1.52468 80.9256 1.63246 80.4945 1.84804C80.0633 2.06362 79.74 2.38699 79.4166 2.76425C79.1471 3.14151 78.9315 3.57267 78.7699 4.11162C78.6082 4.65056 78.6082 5.13561 78.6621 5.72845C78.716 6.32129 78.8777 6.86024 79.0932 7.34529C79.3088 7.83034 79.5783 8.31539 79.9555 8.69266C80.3328 9.06992 80.7101 9.39329 81.1951 9.60886C81.6802 9.82444 82.1652 9.93223 82.7581 9.93223C83.297 9.93223 83.7821 9.82444 84.2132 9.60886C84.6444 9.39329 84.9677 9.06992 85.2911 8.69266C85.5606 8.31539 85.7762 7.88424 85.9378 7.34529C85.9917 6.80635 86.0456 6.2674 85.9917 5.67456ZM82.4886 7.39919H82.2191C81.8958 6.64466 81.3029 6.10572 80.5484 5.78235V5.51288C81.3029 5.18951 81.8419 4.59667 82.2191 3.84214H82.4886C82.812 4.59667 83.3509 5.13561 84.1054 5.51288V5.78235C83.3509 6.10572 82.812 6.64466 82.4886 7.39919Z" fill="#F16436"/>
    <path d="M98.9802 5.78234C99.3036 6.2135 99.627 6.69855 99.9503 7.1836C100.274 7.66866 100.597 8.15371 100.867 8.58486C101.136 9.01602 101.406 9.39328 101.567 9.66276C101.783 9.98612 101.891 10.1478 101.944 10.2017C101.998 10.3095 102.106 10.4712 102.214 10.6329C102.322 10.7945 102.43 10.9562 102.537 11.1179C102.645 11.2796 102.699 11.3874 102.753 11.4952C102.807 11.603 102.807 11.6569 102.753 11.7107C102.645 11.8185 102.483 11.8185 102.268 11.7646C102.052 11.6569 101.729 11.4413 101.298 11.064L96.2316 6.53687C95.8005 6.48297 95.4232 6.48297 95.0998 6.42908V9.1777C95.0998 9.66276 95.1537 9.98612 95.3154 10.2017C95.4771 10.4173 95.8544 10.5251 96.4472 10.6329C96.555 10.6329 96.6089 10.6329 96.7167 10.6329L96.7706 11.1718H96.4472C96.016 11.1179 95.6927 11.1179 95.4771 11.064C95.2615 11.064 95.0459 11.0101 94.7765 11.0101H92.8902C92.6746 11.0101 92.4051 11.0101 92.1895 11.064C91.9739 11.064 91.6506 11.1179 91.2194 11.1718H90.8422V10.6329C90.95 10.6329 91.0577 10.6329 91.1116 10.6329C91.7045 10.579 92.0817 10.4173 92.2434 10.2017C92.4051 9.98612 92.459 9.66276 92.459 9.1777V2.17141C92.459 1.68636 92.4051 1.36299 92.2434 1.14741C92.0817 0.931831 91.7045 0.824042 91.1116 0.716253C91.0577 0.716253 90.95 0.716253 90.8422 0.716253V0.177307L91.2194 0.231202C91.6506 0.285096 91.9739 0.285096 92.1895 0.338991C92.4051 0.338991 92.5668 0.338991 92.6746 0.338991C92.7824 0.338991 92.9979 0.338991 93.3752 0.338991C93.6986 0.338991 94.0758 0.338991 94.5609 0.338991C94.992 0.338991 95.4232 0.338991 95.9083 0.338991C96.3394 0.338991 96.7167 0.338991 96.9323 0.338991C98.1718 0.338991 99.1419 0.608464 99.8426 1.14741C100.543 1.68636 100.867 2.33309 100.867 3.08762C100.867 3.68046 100.705 4.2733 100.382 4.75835C100.058 5.2434 99.4653 5.51287 98.9802 5.78234ZM95.9083 5.62066C96.5011 5.62066 96.9861 5.40508 97.4173 5.02782C97.8485 4.65056 98.064 4.05772 98.064 3.35709C98.064 2.81814 97.9024 2.38699 97.579 1.95583C97.2556 1.52467 96.7706 1.30909 96.0699 1.30909C95.7466 1.30909 95.4771 1.30909 95.3154 1.41688C95.0998 1.47078 95.0459 1.63246 95.0459 1.90193V5.56677C95.4771 5.62066 95.7466 5.62066 95.9083 5.62066Z" fill="#F16436"/>
    <path d="M109.975 11.4413C109.112 11.4413 108.25 11.2796 107.496 11.0101C106.741 10.7407 106.04 10.3634 105.448 9.87834C104.855 9.39329 104.424 8.80045 104.1 8.09982C103.777 7.39919 103.615 6.64466 103.615 5.78235C103.615 4.97393 103.777 4.2194 104.1 3.51877C104.424 2.81815 104.855 2.17141 105.448 1.63246C106.04 1.09352 106.687 0.662362 107.496 0.338994C108.304 0.0156266 109.112 -0.146057 110.029 -0.146057C110.568 -0.146057 111.107 -0.0921625 111.538 0.0156267C111.969 0.123416 112.346 0.231205 112.723 0.338994C113.047 0.446783 113.37 0.554573 113.64 0.608467C113.909 0.662362 114.125 0.662362 114.286 0.500678L114.448 3.57267H113.963C113.909 3.19541 113.747 2.87204 113.478 2.60257C113.208 2.33309 112.939 2.06362 112.616 1.84804C112.292 1.63246 111.915 1.47078 111.538 1.36299C111.16 1.2552 110.783 1.20131 110.352 1.20131C109.759 1.20131 109.22 1.3091 108.735 1.57857C108.25 1.84804 107.819 2.17141 107.496 2.54867C107.172 2.97983 106.903 3.41099 106.741 4.00383C106.579 4.54277 106.472 5.13561 106.526 5.72845C106.579 6.37519 106.687 6.91413 106.957 7.45308C107.172 7.99203 107.496 8.42318 107.873 8.80045C108.25 9.17771 108.681 9.44718 109.22 9.66276C109.705 9.87834 110.244 9.98613 110.783 9.98613C111.214 9.98613 111.646 9.93223 112.077 9.82444V7.99203C112.077 7.50698 112.023 7.18361 111.861 6.96803C111.699 6.75245 111.322 6.64466 110.729 6.53687C110.622 6.53687 110.568 6.53687 110.46 6.53687V5.99793H110.783C111.214 6.05182 111.538 6.05182 111.753 6.10572C111.969 6.10572 112.184 6.15961 112.454 6.15961H114.34C114.556 6.15961 114.825 6.15961 115.041 6.10572C115.256 6.05182 115.58 6.05182 116.011 5.99793H116.388V6.53687C116.28 6.53687 116.173 6.53687 116.119 6.53687C115.526 6.59077 115.149 6.75245 114.987 6.96803C114.825 7.18361 114.771 7.50698 114.771 7.99203C114.771 9.50107 114.664 10.3634 114.394 10.4712C114.125 10.579 113.801 10.6868 113.37 10.8484C112.939 11.0101 112.454 11.1179 111.915 11.2257C111.214 11.3874 110.622 11.4413 109.975 11.4413Z" fill="#F16436"/>
    <path d="M121.939 5.78234V8.69265C121.939 9.12381 121.993 9.39328 122.047 9.50107C122.101 9.60886 122.371 9.60886 122.748 9.60886C122.802 9.60886 122.909 9.60886 123.071 9.60886C123.233 9.60886 123.448 9.60886 123.664 9.60886C123.88 9.60886 124.041 9.60886 124.203 9.60886H124.472C124.796 9.60886 125.065 9.60886 125.281 9.55497C125.496 9.50107 125.658 9.44718 125.82 9.33939C125.981 9.2316 126.143 9.06991 126.251 8.90823C126.413 8.74655 126.52 8.53097 126.736 8.26149L127.383 8.2076C127.221 8.53097 127.059 8.80044 126.952 9.06991C126.844 9.33939 126.79 9.60886 126.736 9.87833C126.682 10.1478 126.628 10.3634 126.574 10.579C126.52 10.7945 126.52 10.9562 126.467 11.1179C126.413 11.1179 126.251 11.1179 125.981 11.1179C125.712 11.1179 125.335 11.1179 124.904 11.064C124.472 11.064 124.041 11.064 123.718 11.064H119.73C119.514 11.064 119.245 11.064 119.029 11.1179C118.813 11.1179 118.49 11.1718 118.059 11.2257H117.736V10.6329C117.789 10.6329 117.843 10.6329 117.897 10.6329C117.951 10.6329 118.005 10.6329 118.005 10.6329C118.598 10.579 118.975 10.4712 119.137 10.2556C119.299 10.04 119.352 9.71665 119.352 9.2316V2.2253C119.352 1.74025 119.299 1.41688 119.137 1.2013C118.975 0.985726 118.598 0.877937 118.005 0.824042C117.951 0.824042 117.897 0.824042 117.897 0.824042C117.843 0.824042 117.789 0.824042 117.736 0.824042V0.177307L118.059 0.231202C118.49 0.285096 118.813 0.285096 119.029 0.338991C119.245 0.338991 119.46 0.338991 119.73 0.338991H126.467L126.844 2.97983H126.305C126.251 2.71035 126.143 2.49477 126.089 2.33309C126.035 2.17141 125.928 2.06362 125.82 1.95583C125.712 1.84804 125.604 1.79414 125.443 1.79414C125.281 1.79414 125.065 1.74025 124.796 1.74025L121.939 1.68636V4.48887H123.88C124.041 4.48887 124.203 4.38108 124.311 4.2194C124.419 4.05772 124.526 3.89603 124.58 3.73435H124.796C125.065 4.38108 125.496 4.81224 126.143 5.08171V5.29729C125.496 5.56677 125.065 5.99792 124.796 6.64466H124.58C124.526 6.48297 124.419 6.32129 124.311 6.15961C124.203 5.99792 124.041 5.89013 123.88 5.89013H121.939V5.78234Z" fill="#F16436"/>
  </symbol>

  <symbol id="cfLogoWithSymbol" viewBox="0 0 220 20">
    <path d="M193.788 17.8913C192.589 17.8913 191.39 17.6696 190.34 17.3C189.291 16.9304 188.317 16.413 187.492 15.7478C186.668 15.0826 186.068 14.2696 185.618 13.3087C185.168 12.3478 184.944 11.313 184.944 10.1304C184.944 9.02174 185.168 7.98696 185.618 7.02609C186.068 6.06522 186.668 5.17826 187.492 4.43913C188.317 3.7 189.216 3.1087 190.34 2.66522C191.465 2.22174 192.589 2 193.863 2C194.613 2 195.363 2.07391 195.962 2.22174C196.562 2.36957 197.087 2.51739 197.611 2.66522C198.061 2.81304 198.511 2.96087 198.886 3.03478C199.26 3.1087 199.56 3.1087 199.785 2.88696L200.01 7.1H199.335C199.26 6.58261 199.035 6.13913 198.661 5.76957C198.286 5.40002 197.911 5.03042 197.461 4.73478C197.012 4.43913 196.487 4.21739 195.962 4.06957C195.438 3.92174 194.913 3.84783 194.313 3.84783C193.489 3.84783 192.739 3.99565 192.064 4.36522C191.39 4.73478 190.79 5.17826 190.34 5.69565C189.891 6.28696 189.516 6.87826 189.291 7.6913C189.066 8.43044 188.916 9.24348 188.991 10.0565C189.066 10.9435 189.216 11.6826 189.591 12.4217C189.891 13.1609 190.34 13.7522 190.865 14.2696C191.39 14.787 191.99 15.1565 192.739 15.4522C193.414 15.7478 194.163 15.8957 194.913 15.8957C195.512 15.8957 196.112 15.8217 196.712 15.6739V13.1609C196.712 12.4957 196.637 12.0522 196.412 11.7565C196.187 11.4609 195.662 11.313 194.838 11.1652H194.463V10.4261H194.913C195.164 10.457 195.389 10.475 195.587 10.4909C195.863 10.513 196.088 10.531 196.262 10.5739C196.404 10.5739 196.545 10.5904 196.695 10.6078C196.862 10.6272 197.039 10.6478 197.237 10.6478H199.86C200.16 10.6478 200.535 10.6478 200.834 10.5739C201.009 10.531 201.234 10.513 201.509 10.4909C201.708 10.475 201.932 10.457 202.184 10.4261H202.708V11.1652H202.334C201.509 11.2391 200.984 11.4609 200.759 11.7565C200.535 12.0522 200.46 12.4957 200.46 13.1609C200.46 15.2304 200.31 16.413 199.935 16.5609C199.725 16.6439 199.491 16.7268 199.22 16.8229C199.008 16.8979 198.774 16.9811 198.511 17.0783C197.911 17.3 197.237 17.4478 196.487 17.5957C195.513 17.8174 194.688 17.8913 193.788 17.8913Z" fill="#F16436"/>
    <path d="M139.145 16.783C138.321 16.6352 137.796 16.4873 137.571 16.1917C137.421 15.896 137.271 15.4525 137.196 14.8612V10.2786H139.895C140.12 10.2786 140.344 10.4265 140.494 10.6482C140.644 10.8699 140.794 11.0917 140.869 11.3134H141.169C141.544 10.4265 142.143 9.83515 143.043 9.46559V9.16993C142.143 8.80037 141.544 8.20907 141.169 7.32211H140.869C140.794 7.54385 140.644 7.76559 140.494 7.98733C140.344 8.20906 140.12 8.35689 139.895 8.35689H137.196V4.51341L141.169 4.58733C141.38 4.58733 141.568 4.6108 141.731 4.63129C141.858 4.64716 141.97 4.66124 142.068 4.66124C142.293 4.66124 142.443 4.73515 142.593 4.88298C142.743 5.0308 142.893 5.17863 142.968 5.40037C142.991 5.4675 143.02 5.54141 143.052 5.6221C143.127 5.80791 143.215 6.02966 143.268 6.28733H144.017L143.493 2.66559H133.149C132.974 2.62263 132.749 2.60464 132.474 2.5826C132.275 2.56671 132.051 2.54872 131.799 2.51776L131.35 2.44385V3.3308H131.724C132.549 3.40472 133.074 3.55254 133.298 3.8482C133.523 4.14385 133.598 4.58733 133.598 5.25254V14.7873C133.598 15.4525 133.523 15.896 133.298 16.1917C133.074 16.4873 132.549 16.7091 131.724 16.783H131.35V17.596H131.874C132.035 17.5762 132.185 17.5564 132.324 17.538C132.704 17.4878 133.004 17.4482 133.224 17.4482C133.523 17.3743 133.898 17.3743 134.198 17.3743H136.821C137.019 17.3743 137.196 17.3949 137.363 17.4143C137.513 17.4317 137.654 17.4482 137.796 17.4482C137.97 17.4911 138.195 17.5091 138.471 17.5312C138.669 17.5471 138.894 17.5651 139.145 17.596H139.595L139.52 16.783H139.145Z" fill="#F16436"/>
    <path fill-rule="evenodd" clip-rule="evenodd" d="M178.498 10.1308C178.947 10.7221 179.397 11.3873 179.847 12.0525L179.847 12.0534C180.297 12.7183 180.747 13.3832 181.121 13.9743C181.309 14.2699 181.496 14.5471 181.665 14.7966C181.833 15.046 181.983 15.2678 182.096 15.4525C182.395 15.896 182.545 16.1178 182.62 16.1917C182.695 16.3395 182.845 16.5612 182.995 16.783L183.445 17.4482C183.595 17.6699 183.67 17.8178 183.745 17.9656C183.82 18.1134 183.82 18.1873 183.745 18.2612C183.595 18.4091 183.37 18.4091 183.07 18.3352C182.77 18.1873 182.32 17.8917 181.721 17.3743L174.675 11.1656C174.396 11.1313 174.134 11.1129 173.888 11.0956C173.604 11.0757 173.342 11.0573 173.101 11.0178V14.7873C173.101 15.4525 173.176 15.896 173.401 16.1917C173.625 16.4873 174.15 16.6352 174.975 16.783H175.349L175.424 17.5221H174.975C174.724 17.4911 174.499 17.4732 174.3 17.4573C174.025 17.4352 173.8 17.4172 173.625 17.3743C173.484 17.3743 173.342 17.3578 173.193 17.3404C173.026 17.321 172.849 17.3004 172.651 17.3004H170.028C169.728 17.3004 169.353 17.3004 169.053 17.3743C168.834 17.3743 168.534 17.4139 168.154 17.4641C168.015 17.4825 167.865 17.5023 167.704 17.5221H167.179V16.783H167.554C168.379 16.7091 168.903 16.4873 169.128 16.1917C169.353 15.896 169.428 15.4525 169.428 14.7873V5.17863C169.428 4.51341 169.353 4.06993 169.128 3.77428C168.903 3.47863 168.379 3.3308 167.554 3.18298H167.179V2.44385L167.704 2.51776C167.955 2.54872 168.18 2.56671 168.379 2.5826C168.654 2.60464 168.879 2.62263 169.053 2.66559H175.649C177.373 2.66559 178.723 3.03515 179.697 3.77428C180.671 4.51341 181.121 5.40037 181.121 6.43515C181.121 7.2482 180.896 8.06124 180.447 8.72646C180.059 9.29942 179.394 9.65305 178.786 9.97626C178.688 10.0283 178.591 10.0796 178.498 10.1308ZM174.225 9.90907C175.05 9.90907 175.724 9.61341 176.324 9.09602C176.924 8.57863 177.223 7.76559 177.223 6.80472C177.223 6.06559 176.999 5.47428 176.549 4.88298C176.099 4.29167 175.424 3.99602 174.45 3.99602C174 3.99602 173.625 3.99602 173.401 4.14385C173.101 4.21776 173.026 4.4395 173.026 4.80907V9.83515C173.625 9.90907 174 9.90907 174.225 9.90907Z" fill="#F16436"/>
    <path d="M210.43 10.2786V14.1221C210.43 14.7134 210.505 15.083 210.58 15.2308C210.655 15.3786 211.029 15.3786 211.554 15.3786H213.953C214.402 15.3786 214.777 15.3786 215.077 15.3047C215.377 15.2308 215.602 15.1569 215.827 15.0091C216.051 14.8612 216.276 14.6395 216.426 14.4178C216.552 14.2932 216.655 14.1454 216.774 13.9743C216.867 13.8407 216.969 13.6928 217.101 13.5308L218 13.4569C217.923 13.6102 217.845 13.7546 217.77 13.8933L217.769 13.8946C217.628 14.1566 217.499 14.3981 217.401 14.6395C217.251 15.0091 217.176 15.3786 217.101 15.7482C217.026 16.1178 216.951 16.4134 216.876 16.7091C216.842 16.8446 216.823 16.9647 216.806 17.0763C216.785 17.2081 216.767 17.3281 216.726 17.4482H216.051C215.677 17.4482 215.152 17.4482 214.552 17.3743H207.356C207.057 17.3743 206.682 17.3743 206.382 17.4482C206.162 17.4482 205.863 17.4878 205.483 17.538C205.343 17.5564 205.193 17.5762 205.033 17.596H204.583V16.783H204.958C205.782 16.7091 206.307 16.5612 206.532 16.2656C206.757 15.9699 206.832 15.5265 206.832 14.8612V5.25254C206.832 4.58733 206.757 4.14385 206.532 3.8482C206.307 3.55254 205.782 3.40472 204.958 3.3308H204.583V2.44385L205.033 2.51776C205.284 2.54872 205.509 2.56671 205.707 2.5826C205.983 2.60464 206.208 2.62263 206.382 2.66559H216.726L217.251 6.28733H216.501C216.449 6.02973 216.36 5.80804 216.286 5.62227L216.285 5.62079C216.253 5.54082 216.224 5.467 216.201 5.40037C216.126 5.17863 215.976 5.0308 215.827 4.88298C215.677 4.73515 215.527 4.66124 215.302 4.66124C215.204 4.66124 215.091 4.64716 214.965 4.63129C214.801 4.6108 214.614 4.58733 214.402 4.58733L210.43 4.51341V8.35689H213.128C213.353 8.35689 213.578 8.20906 213.728 7.98733C213.878 7.76561 214.028 7.54382 214.103 7.32211H214.402C214.777 8.20907 215.377 8.80037 216.276 9.16993V9.46559C215.377 9.83515 214.777 10.4265 214.402 11.3134H214.103C214.028 11.0917 213.878 10.87 213.728 10.6483C213.578 10.4265 213.353 10.2786 213.128 10.2786H210.43Z" fill="#F16436"/>
    <path d="M155.186 12.3478H155.56C156.01 11.313 156.76 10.5739 157.809 10.1304V9.76087C156.76 9.24348 156.01 8.50435 155.56 7.46957H155.186C154.661 8.50435 153.911 9.31739 152.862 9.76087V10.1304C153.911 10.5739 154.736 11.313 155.186 12.3478Z" fill="#F16436"/>
    <path fill-rule="evenodd" clip-rule="evenodd" d="M163.506 12.8652C163.956 11.9043 164.181 10.8696 164.181 9.76087C164.181 8.57826 163.956 7.54348 163.581 6.5087C163.131 5.54783 162.531 4.73478 161.707 4.06957C160.957 3.40435 159.983 2.88696 158.934 2.51739C157.884 2.14783 156.685 2 155.486 2C154.211 2 153.087 2.22174 151.963 2.66522C150.838 3.1087 149.939 3.7 149.114 4.43913C148.29 5.17826 147.69 6.06522 147.24 7.02609C146.791 7.98696 146.566 9.02174 146.566 10.1304C146.566 11.313 146.791 12.3478 147.24 13.3087C147.69 14.2696 148.29 15.0826 149.114 15.7478C149.939 16.413 150.913 16.9304 151.963 17.3C153.012 17.6696 154.211 17.8913 155.411 17.8913C156.685 17.8913 157.884 17.6696 158.934 17.2261C159.983 16.7826 160.957 16.1913 161.707 15.4522C162.456 14.713 163.056 13.8261 163.506 12.8652ZM159.908 7.76522C160.208 8.43043 160.358 9.16957 160.433 9.98261C160.508 10.7957 160.433 11.5348 160.358 12.2739C160.133 13.013 159.833 13.6043 159.458 14.1217C159.008 14.6391 158.559 15.0826 157.959 15.3783C157.359 15.6739 156.685 15.8217 155.935 15.8217C155.111 15.8217 154.436 15.6739 153.762 15.3783C153.087 15.0826 152.562 14.6391 152.038 14.1217C151.513 13.6043 151.138 12.9391 150.838 12.2739C150.538 11.6087 150.314 10.8696 150.239 10.0565C150.164 9.24348 150.164 8.57826 150.388 7.83913C150.613 7.1 150.913 6.5087 151.288 5.9913C151.738 5.47391 152.187 5.03043 152.787 4.73478C153.387 4.43913 154.061 4.2913 154.811 4.2913C155.635 4.2913 156.31 4.36522 156.985 4.66087C157.659 4.95652 158.184 5.4 158.709 5.91739C159.233 6.43478 159.608 7.1 159.908 7.76522Z" fill="#F16436"/>
    <path d="M111.036 15.0826C111.336 14.5652 111.486 14.0478 111.486 13.5304C111.486 12.2739 111.111 11.2391 110.362 10.2783C109.612 9.46522 108.563 8.65217 107.139 7.91304C107.023 7.85611 106.908 7.78821 106.788 7.71779C106.597 7.60538 106.395 7.48654 106.164 7.39565C105.789 7.24783 105.49 7.02609 105.19 6.80435C104.89 6.58261 104.665 6.36087 104.44 6.13913C104.215 5.91739 104.14 5.69565 104.14 5.4C104.14 4.88261 104.365 4.43913 104.74 4.06957C105.115 3.7 105.64 3.55217 106.314 3.55217C106.989 3.55217 107.588 3.7 108.263 4.06957C108.938 4.43913 109.462 5.10435 109.912 6.06522H110.587L110.062 2.66522C109.612 2.66522 109.237 2.66522 108.938 2.5913C108.638 2.51739 108.338 2.44348 107.963 2.36957C107.663 2.29565 107.289 2.22174 106.914 2.14783C106.539 2 106.164 2 105.714 2C104.215 2 103.091 2.36957 102.192 3.1087C101.367 3.84783 100.917 4.8087 100.917 6.06522C100.917 6.95217 101.217 7.76522 101.817 8.50435C102.416 9.24348 103.241 9.9087 104.215 10.4261C105.49 11.0913 106.464 11.6826 107.064 12.2C107.738 12.7174 108.038 13.3087 108.038 13.9739C108.038 14.713 107.813 15.2304 107.289 15.6C106.764 16.0435 106.089 16.1913 105.19 16.1913C104.14 16.1913 103.391 15.8957 102.791 15.3783C102.192 14.8609 101.817 13.9739 101.517 12.8652H100.692L101.367 16.8565C101.522 16.9178 101.716 16.979 101.943 17.0507C102.264 17.1522 102.652 17.2746 103.091 17.4478C103.841 17.7435 104.74 17.8913 105.714 17.8913C106.539 17.8913 107.364 17.7435 108.038 17.5217C108.713 17.3 109.312 16.9304 109.837 16.487C110.362 16.0435 110.737 15.6 111.036 15.0826Z" fill="white"/>
    <path d="M56.5428 16.6356C56.3179 16.7834 55.9432 17.0051 55.5684 17.153C55.1187 17.3008 54.6689 17.4486 54.1442 17.5964C53.6195 17.7443 53.0948 17.8182 52.5701 17.8921C52.0454 17.966 51.5207 18.0399 51.071 18.0399C49.8717 18.0399 48.6724 17.8182 47.623 17.4486C46.5736 17.0791 45.5991 16.5617 44.7746 15.8964C43.9501 15.2312 43.3504 14.4182 42.9007 13.4573C42.4509 12.4964 42.2261 11.4617 42.2261 10.2791C42.2261 9.17036 42.4509 8.13558 42.9007 7.17471C43.3504 6.21384 43.9501 5.32688 44.7746 4.58775C45.5991 3.84862 46.4986 3.25732 47.623 2.81384C48.7473 2.37036 49.8717 2.14862 51.1459 2.14862C51.8955 2.14862 52.5701 2.22253 53.1698 2.37036C53.6945 2.51819 54.2191 2.66601 54.5939 2.81384C55.0437 2.96166 55.3435 3.03558 55.6433 3.10949C55.9432 3.1834 56.243 3.10949 56.4678 2.96166L56.6927 6.87906H56.0181C55.7183 5.84427 55.1936 5.17906 54.3691 4.73558C53.5445 4.2921 52.5701 4.07036 51.4458 4.07036C50.6212 4.07036 49.8717 4.21819 49.197 4.58775C48.5224 4.95732 47.9228 5.40079 47.473 5.91819C47.0233 6.50949 46.6485 7.10079 46.4237 7.91384C46.1988 8.65297 46.0489 9.46601 46.1238 10.2791C46.1988 11.166 46.3487 11.9051 46.7235 12.6443C47.0233 13.3834 47.473 13.9747 47.9977 14.4921C48.5224 15.0095 49.1221 15.3791 49.8717 15.6747C50.5463 15.9704 51.2958 16.1182 52.0454 16.1182C52.6451 16.1182 53.1698 16.0443 53.6195 15.9704C54.0692 15.8964 54.519 15.7486 54.8938 15.453C55.2685 15.2312 55.5684 14.8617 55.7932 14.4921C56.0181 14.1225 56.168 13.5312 56.243 12.866H56.9925L56.5428 16.6356Z" fill="white"/>
    <path d="M67.4117 17.5942C68.3111 17.5942 69.1357 17.3725 69.9602 17.0029C70.7847 16.6333 71.4593 16.042 71.984 15.3768V17.3725H75.1322C75.33 17.3725 75.507 17.393 75.6741 17.4125C75.8235 17.4299 75.9651 17.4464 76.1066 17.4464C76.2809 17.4893 76.5058 17.5073 76.7813 17.5294C76.9798 17.5452 77.2047 17.5632 77.4559 17.5942H77.9806L77.9056 16.7811H77.5308C76.7063 16.6333 76.1816 16.4855 75.9567 16.1898C75.7319 15.8942 75.6569 15.4507 75.6569 14.7855V5.25071C75.6569 4.5855 75.7319 4.14202 75.9567 3.84636C76.1066 3.62463 76.6313 3.40289 77.6807 3.25506H78.0555L78.1305 2.51593L77.6058 2.58984C77.4451 2.60965 77.2952 2.62945 77.156 2.64784C76.7759 2.69806 76.476 2.73767 76.2566 2.73767H71.6842C71.51 2.69472 71.2851 2.67672 71.0096 2.65468C70.811 2.63879 70.5861 2.6208 70.335 2.58984L69.8103 2.51593V3.25506H70.1851C71.0096 3.40289 71.5343 3.55071 71.7592 3.84636C71.984 4.14202 72.059 4.5855 72.059 5.25071V13.529C71.6842 14.1942 71.2345 14.7116 70.7098 15.0811C70.1101 15.4507 69.5105 15.6725 68.9108 15.6725C68.1612 15.6725 67.4866 15.3768 66.9619 14.8594C66.4372 14.342 66.1374 13.4551 66.1374 12.1985V5.25071C66.1374 4.5855 66.2124 4.14202 66.4372 3.84636C66.6621 3.55071 67.1868 3.32897 68.0113 3.25506H68.3861L68.4611 2.51593L68.0113 2.58984C67.8506 2.60965 67.7007 2.62945 67.5616 2.64784C67.1814 2.69806 66.8816 2.73767 66.6621 2.73767H62.0897C61.9155 2.69472 61.6906 2.67672 61.4151 2.65468C61.2166 2.63879 60.9917 2.6208 60.7405 2.58984L60.2158 2.51593V3.25506H60.5906C61.4151 3.40289 61.9398 3.55071 62.1647 3.84636C62.3896 4.14202 62.4645 4.5855 62.4645 5.25071V12.1985C62.4645 13.2333 62.6144 14.0464 62.8393 14.7116C63.1391 15.3768 63.439 15.8942 63.8887 16.3377C64.3384 16.7811 64.8631 17.0768 65.4628 17.2985C66.0624 17.5203 66.7371 17.5942 67.4117 17.5942Z" fill="white"/>
    <path fill-rule="evenodd" clip-rule="evenodd" d="M93.7215 10.2029C94.1713 10.7942 94.621 11.4594 95.0708 12.1246C95.5205 12.7898 95.9702 13.4551 96.345 14.0464C96.5323 14.3418 96.7195 14.6187 96.888 14.868C97.0567 15.1175 97.207 15.3398 97.3195 15.5246C97.619 15.9677 97.7692 16.1899 97.8442 16.2638C97.9191 16.4116 98.069 16.6333 98.2189 16.8551L98.6687 17.5203C98.8186 17.742 98.8935 17.8898 98.9685 18.0376C99.0434 18.1854 99.0435 18.2594 98.9685 18.3333C98.8186 18.4811 98.5937 18.4811 98.2939 18.4072C97.9941 18.2594 97.5443 17.9638 96.9447 17.4464L89.8988 11.2377C89.6202 11.2033 89.3579 11.185 89.1117 11.1677C88.8279 11.1478 88.5655 11.1294 88.3247 11.0898V14.8594C88.3247 15.5246 88.3996 15.9681 88.6245 16.2638C88.8494 16.5594 89.3741 16.7072 90.1986 16.8551H90.5734L90.6483 17.5942H90.1986C89.9474 17.5632 89.7225 17.5452 89.524 17.5294C89.2485 17.5073 89.0236 17.4893 88.8494 17.4464C88.7078 17.4464 88.5662 17.4299 88.4168 17.4125C88.2497 17.393 88.0728 17.3725 87.8749 17.3725H85.2514C84.9516 17.3725 84.5768 17.3725 84.277 17.4464C84.0575 17.4464 83.7577 17.486 83.3775 17.5362C83.2384 17.5546 83.0884 17.5744 82.9278 17.5942H82.4031V16.8551H82.7779C83.6024 16.7811 84.1271 16.5594 84.352 16.2638C84.5768 15.9681 84.6518 15.5246 84.6518 14.8594V5.25071C84.6518 4.5855 84.5768 4.14202 84.352 3.84637C84.1271 3.55071 83.6024 3.40289 82.7779 3.25506H82.4031V2.51593L82.9278 2.58984C83.1789 2.6208 83.4038 2.63879 83.6024 2.65468C83.8779 2.67672 84.1028 2.69472 84.277 2.73767H90.8732C92.5972 2.73767 93.9464 3.10723 94.9209 3.84637C95.8953 4.5855 96.345 5.47245 96.345 6.50723C96.345 7.32028 96.1202 8.13332 95.6704 8.79854C95.2831 9.3715 94.6176 9.72513 94.0095 10.0483C93.9115 10.1004 93.8151 10.1516 93.7215 10.2029ZM89.449 9.98115C90.2735 9.98115 90.9481 9.6855 91.5478 9.1681C92.1475 8.65071 92.4473 7.83767 92.4473 6.8768C92.4473 6.13767 92.2224 5.54637 91.7727 4.95506C91.3229 4.36376 90.6483 4.0681 89.6739 4.0681C89.2241 4.0681 88.8494 4.0681 88.6245 4.21593C88.3247 4.28984 88.2497 4.51158 88.2497 4.88115V9.90724C88.8494 9.98115 89.2241 9.98115 89.449 9.98115Z" fill="white"/>
    <path d="M120.182 10.3507V14.1942C120.182 14.7855 120.257 15.1551 120.331 15.3029C120.406 15.4507 120.781 15.4507 121.306 15.4507H123.705C124.154 15.4507 124.529 15.4507 124.829 15.3768C125.129 15.3029 125.354 15.229 125.578 15.0811C125.803 14.9333 126.028 14.7116 126.178 14.4898C126.304 14.3653 126.407 14.2175 126.526 14.0464C126.619 13.9127 126.721 13.7649 126.853 13.6029L127.752 13.529C127.674 13.6827 127.596 13.8276 127.521 13.9666C127.38 14.2286 127.25 14.4702 127.153 14.7116C127.003 15.0811 126.928 15.4507 126.853 15.8203C126.778 16.1898 126.703 16.4855 126.628 16.7811C126.593 16.9167 126.575 17.0368 126.558 17.1484C126.537 17.2802 126.519 17.4002 126.478 17.5203H125.803C125.429 17.5203 124.904 17.5203 124.304 17.4464H117.108C116.809 17.4464 116.434 17.4464 116.134 17.5203C115.914 17.5203 115.615 17.5599 115.234 17.6101C115.095 17.6285 114.945 17.6483 114.785 17.6681H114.335V16.8551H114.71C115.534 16.7811 116.059 16.6333 116.284 16.3377C116.509 16.042 116.584 15.5985 116.584 14.9333V5.32463C116.584 4.65941 116.509 4.21593 116.284 3.92028C116.059 3.62463 115.534 3.4768 114.71 3.40289H114.335V2.51593L114.785 2.58984C115.036 2.6208 115.261 2.63879 115.459 2.65468C115.735 2.67672 115.96 2.69472 116.134 2.73767H126.478L127.003 6.35941H126.253C126.201 6.10181 126.112 5.88013 126.038 5.69435L126.037 5.69288C126.005 5.6129 125.976 5.53908 125.953 5.47245C125.878 5.25071 125.728 5.10289 125.578 4.95506C125.429 4.80723 125.279 4.73332 125.054 4.73332C124.956 4.73332 124.843 4.71924 124.716 4.70337C124.553 4.68288 124.365 4.65941 124.154 4.65941L120.182 4.5855V8.42897H122.88C123.105 8.42897 123.33 8.28115 123.48 8.05941C123.63 7.83769 123.78 7.61591 123.854 7.39419H124.154C124.529 8.28115 125.129 8.87245 126.028 9.24202V9.53767C125.129 9.90723 124.529 10.4985 124.154 11.3855H123.929C123.854 11.1638 123.705 10.9421 123.555 10.7203C123.405 10.4986 123.18 10.3507 122.955 10.3507H120.182Z" fill="white"/>
    <path d="M9.47011 2L9.99481 4.21739C7.37132 4.21739 1 4.21739 1 4.21739C1 4.21739 1.14991 4.88261 1.22487 4.95652C1.44974 5.32609 1.67461 5.76957 1.97444 6.06522C3.39861 7.6913 5.87219 8.35652 7.89602 8.72609C9.3202 9.02174 10.7444 9.09565 12.1686 9.16957L13.8176 13.5304H14.7171L15.2418 14.9348H14.4922L13.2179 19H25.7357L24.4615 14.9348H23.7119L24.2366 13.5304H25.1361C25.1361 13.5304 25.8856 9.02174 28.2093 6.95217C30.458 4.88261 33.2314 4.58696 33.2314 4.58696V2H9.47011ZM22.0628 13.1609C21.4632 13.5304 20.7886 13.5304 20.3388 13.8261C20.039 13.9739 19.8891 14.4174 19.8891 14.4174C19.5893 13.7522 19.2145 13.5304 18.7647 13.3826C18.315 13.2348 17.4905 13.3087 16.3661 12.3478C15.6166 11.6826 15.5416 10.7957 15.6166 10.3522V10.2783C15.6166 10.2043 15.6166 10.2043 15.6166 10.1304C15.6166 10.0565 15.6166 9.98261 15.6915 9.9087C15.8414 9.46522 16.2162 9.02174 16.9658 8.72609C16.9658 8.72609 16.4411 9.46522 16.9658 10.2043C17.2656 10.6478 17.8653 10.8696 18.39 10.5739C18.6148 10.4261 18.7647 10.1304 18.8397 9.9087C18.9896 9.3913 18.9896 8.87391 18.5399 8.50435C17.8653 7.91304 17.7153 7.1 18.1651 6.58261C18.1651 6.58261 18.315 7.24783 18.9896 7.17391C19.4394 7.17391 19.4394 7.02609 19.2894 6.87826C19.2145 6.65652 18.24 5.25217 19.6642 4.21739C19.6642 4.21739 20.5637 3.62609 21.6131 3.7C21.0134 3.77391 20.3388 4.14348 20.114 4.73478C20.114 4.73478 20.114 4.73478 20.114 4.8087C19.8891 5.4 20.039 6.06522 20.4887 6.65652C20.7886 7.1 21.1634 7.46956 21.3133 8.06087C21.0884 7.98696 20.9385 8.06087 20.7886 8.2087C20.6387 8.35652 20.5637 8.65217 20.6387 8.87391C20.7136 9.02174 20.8635 9.16957 21.0134 9.16957C21.0884 9.16957 21.0884 9.16957 21.1634 9.16957H21.2383C21.4632 9.09565 21.6131 8.8 21.5381 8.57826C21.6881 8.72609 21.763 9.09565 21.6881 9.31739C21.6881 9.53913 21.5381 9.76087 21.4632 9.9087C21.3882 10.0565 21.2383 10.2043 21.1634 10.3522C21.0884 10.5 21.0134 10.6478 21.0134 10.7957C21.0134 10.9435 21.0134 11.1652 21.0884 11.313C21.3882 11.7565 21.9879 11.313 22.1378 10.9435C22.3627 10.5 22.2877 9.98261 21.9879 9.53913C21.9879 9.53913 22.5126 9.83478 22.8874 10.8696C23.1872 11.7565 22.6625 12.7913 22.0628 13.1609Z" fill="white"/>
  </symbol>

  <symbol id="forgeSymbol" viewBox="0 0 58 30">
    <path d="M15.2419 0L16.186 3.91304C11.4651 3.91304 0 3.91304 0 3.91304C0 3.91304 0.269767 5.08696 0.404651 5.21739C0.809302 5.86957 1.21395 6.65217 1.75349 7.17391C4.31628 10.0435 8.76744 11.2174 12.4093 11.8696C14.9721 12.3913 17.5349 12.5217 20.0977 12.6522L23.0651 20.3478H24.6837L25.6279 22.8261H24.2791L21.986 30H44.5116L42.2186 22.8261H40.8698L41.814 20.3478H43.4326C43.4326 20.3478 44.7814 12.3913 48.9628 8.73913C53.0093 5.08696 58 4.56522 58 4.56522V0H15.2419ZM37.9023 19.6957C36.8233 20.3478 35.6093 20.3478 34.8 20.8696C34.2605 21.1304 33.9907 21.913 33.9907 21.913C33.4512 20.7391 32.7767 20.3478 31.9674 20.087C31.1581 19.8261 29.6744 19.9565 27.6512 18.2609C26.3023 17.087 26.1674 15.5217 26.3023 14.7391V14.6087C26.3023 14.4783 26.3023 14.4783 26.3023 14.3478C26.3023 14.2174 26.3023 14.087 26.4372 13.9565C26.707 13.1739 27.3814 12.3913 28.7302 11.8696C28.7302 11.8696 27.786 13.1739 28.7302 14.4783C29.2698 15.2609 30.3488 15.6522 31.293 15.1304C31.6977 14.8696 31.9674 14.3478 32.1023 13.9565C32.3721 13.0435 32.3721 12.1304 31.5628 11.4783C30.3488 10.4348 30.0791 9 30.8884 8.08696C30.8884 8.08696 31.1581 9.26087 32.3721 9.13043C33.1814 9.13043 33.1814 8.86957 32.9116 8.6087C32.7767 8.21739 31.0233 5.73913 33.586 3.91304C33.586 3.91304 35.2047 2.86957 37.093 3C36.014 3.13043 34.8 3.78261 34.3954 4.82609C34.3954 4.82609 34.3954 4.82609 34.3954 4.95652C33.9907 6 34.2605 7.17391 35.0698 8.21739C35.6093 9 36.2837 9.65217 36.5535 10.6957C36.1488 10.5652 35.8791 10.6957 35.6093 10.9565C35.3395 11.2174 35.2047 11.7391 35.3395 12.1304C35.4744 12.3913 35.7442 12.6522 36.014 12.6522C36.1488 12.6522 36.1488 12.6522 36.2837 12.6522H36.4186C36.8233 12.5217 37.093 12 36.9581 11.6087C37.2279 11.8696 37.3628 12.5217 37.2279 12.913C37.2279 13.3043 36.9581 13.6957 36.8233 13.9565C36.6884 14.2174 36.4186 14.4783 36.2837 14.7391C36.1488 15 36.014 15.2609 36.014 15.5217C36.014 15.7826 36.014 16.1739 36.1488 16.4348C36.6884 17.2174 37.7674 16.4348 38.0372 15.7826C38.4419 15 38.307 14.087 37.7674 13.3043C37.7674 13.3043 38.7116 13.8261 39.386 15.6522C39.9256 17.2174 38.9814 19.0435 37.9023 19.6957Z" fill="currentColor"/>
  </symbol>

  <symbol id="searchIcon" viewBox="0 0 20 20">
    <path fill-rule="evenodd" clip-rule="evenodd" d="M11.4764 12.8908C10.4956 13.5892 9.29579 14 8 14C4.68629 14 2 11.3137 2 8C2 4.68629 4.68629 2 8 2C11.3137 2 14 4.68629 14 8C14 9.29587 13.5892 10.4958 12.8907 11.4766L16.707 15.2929C17.0975 15.6834 17.0975 16.3166 16.707 16.7071C16.3164 17.0976 15.6833 17.0976 15.2927 16.7071L11.4764 12.8908ZM12 8C12 10.2091 10.2091 12 8 12C5.79086 12 4 10.2091 4 8C4 5.79086 5.79086 4 8 4C10.2091 4 12 5.79086 12 8Z" fill="currentColor"/>
  </symbol>

  <symbol id="projectIcon" viewBox="0 0 20 20">
    <path d="M7.5 2.5C7.03976 2.5 6.66667 2.8731 6.66667 3.33333V8.33333C6.66667 8.79357 7.03976 9.16667 7.5 9.16667H12.5C12.9602 9.16667 13.3333 8.79357 13.3333 8.33333V3.33333C13.3333 2.8731 12.9602 2.5 12.5 2.5H7.5Z" fill="currentColor"/>
    <path d="M2.5 11.6667C2.5 11.2064 2.8731 10.8333 3.33333 10.8333H8.33333C8.79357 10.8333 9.16667 11.2064 9.16667 11.6667V16.6667C9.16667 17.1269 8.79357 17.5 8.33333 17.5H3.33333C2.8731 17.5 2.5 17.1269 2.5 16.6667V11.6667Z" fill="currentColor"/>
    <path d="M10.8333 11.6667C10.8333 11.2064 11.2064 10.8333 11.6667 10.8333H16.6667C17.1269 10.8333 17.5 11.2064 17.5 11.6667V16.6667C17.5 17.1269 17.1269 17.5 16.6667 17.5H11.6667C11.2064 17.5 10.8333 17.1269 10.8333 16.6667V11.6667Z" fill="currentColor"/>
  </symbol>

  <symbol id="icon-download" viewBox="0 0 20 20">
    <path fill-rule="evenodd" clip-rule="evenodd" d="M16 18C16 18.5523 15.5522 19 15 19L4.99996 19C4.44768 19 3.99996 18.5523 3.99996 18C3.99996 17.4477 4.44768 17 4.99996 17L15 17C15.5522 17 16 17.4477 16 18ZM10.6247 13.7809C10.2594 14.073 9.74049 14.073 9.37527 13.7809L4.37527 9.78087C3.94401 9.43586 3.87409 8.80657 4.2191 8.3753C4.5641 7.94404 5.1934 7.87412 5.62466 8.21913L8.99996 10.9194L8.99996 2C8.99996 1.44772 9.44768 0.999999 9.99996 0.999999C10.5522 1 11 1.44772 11 2L11 10.9194L14.3753 8.21913C14.8065 7.87412 15.4358 7.94404 15.7808 8.37531C16.1258 8.80657 16.0559 9.43586 15.6247 9.78087L10.6247 13.7809Z" fill="currentColor"/>
  </symbol>

  <symbol id="arrow" viewBox="0 0 20 20">
    <path fill-rule="evenodd" clip-rule="evenodd" d="M10.6247 13.7809C10.2594 14.073 9.74049 14.073 9.37527 13.7809L4.37527 9.78087C3.94401 9.43586 3.87408 8.80657 4.21909 8.37531C4.5641 7.94404 5.1934 7.87412 5.62466 8.21913L9.99996 11.7194L14.3753 8.21913C14.8065 7.87412 15.4358 7.94404 15.7808 8.37531C16.1258 8.80657 16.0559 9.43586 15.6247 9.78087L10.6247 13.7809Z" fill="currentcolor"/>
  </symbol>

  <symbol id="sliderArrow" viewBox="0 0 24 24">
    <path fill-rule="evenodd" clip-rule="evenodd" d="M17.6389 11.5238C18.149 12.1189 18.1149 13.0065 17.5607 13.5607L11.5607 19.5607C10.9749 20.1465 10.0251 20.1465 9.43933 19.5607C8.85355 18.9749 8.85355 18.0252 9.43933 17.4394L14.4571 12.4216L9.36111 6.47621C8.82198 5.84722 8.89482 4.90027 9.52381 4.36114C10.1528 3.82201 11.0997 3.89485 11.6389 4.52384L17.6389 11.5238Z" fill="currentcolor"/>
  </symbol>

  <symbol id="loginSoon" viewBox="0 0 116 20">
    <path d="M17.3537 8.53H16.75V8.5H10V11.5H14.2375C13.6187 13.2475 11.9575 14.5 10 14.5C7.51375 14.5 5.5 12.4862 5.5 10C5.5 7.51375 7.51375 5.5 10 5.5C11.1475 5.5 12.19 5.93125 12.985 6.64L15.1075 4.5175C13.7687 3.26875 11.9762 2.5 10 2.5C5.85625 2.5 2.5 5.85625 2.5 10C2.5 14.1437 5.85625 17.5 10 17.5C14.1437 17.5 17.5 14.14 17.5 10C17.5 9.4975 17.4475 9.00625 17.3537 8.53Z" fill="#FBBC05"/>
    <path d="M3.36621 6.50875L5.82996 8.31625C6.49371 6.66625 8.10996 5.5 9.99996 5.5C11.1475 5.5 12.19 5.93125 12.985 6.64L15.1075 4.5175C13.7687 3.26875 11.9762 2.5 9.99996 2.5C7.11996 2.5 4.62246 4.1275 3.36621 6.50875Z" fill="#EA4335"/>
    <path d="M9.99995 17.5C11.9387 17.5 13.6974 16.7575 15.0287 15.5538L12.7074 13.5888C11.9537 14.1588 11.0199 14.5 9.99995 14.5C8.04995 14.5 6.39245 13.255 5.76995 11.5188L3.32495 13.405C4.5662 15.835 7.0862 17.5 9.99995 17.5Z" fill="#34A853"/>
    <path d="M17.3537 8.53H16.75V8.5H10V11.5H14.2375C13.9412 12.34 13.4012 13.0637 12.7037 13.5887L15.025 15.5537C14.8637 15.7037 17.5 13.75 17.5 10C17.5 9.4975 17.4475 9.00625 17.3537 8.53Z" fill="#4285F4"/>
    <path d="M48.2378 4.16052C47.0905 3.62337 45.8602 3.22761 44.5739 3.00095C44.5505 2.99658 44.5271 3.00751 44.515 3.02937C44.3568 3.31653 44.1815 3.69115 44.0588 3.98559C42.6753 3.77424 41.2989 3.77424 39.9437 3.98559C39.821 3.6846 39.6394 3.31653 39.4804 3.02937C39.4684 3.00824 39.445 2.99731 39.4215 3.00095C38.1359 3.22689 36.9057 3.62264 35.7577 4.16052C35.7478 4.1649 35.7392 4.17219 35.7336 4.18166C33.4 7.73909 32.7608 11.2091 33.0744 14.636C33.0758 14.6528 33.085 14.6688 33.0978 14.679C34.6374 15.8328 36.1288 16.5332 37.5925 16.9974C37.6159 17.0047 37.6407 16.996 37.6556 16.9763C38.0018 16.4938 38.3105 15.9851 38.5751 15.4501C38.5907 15.4188 38.5758 15.3816 38.5439 15.3692C38.0543 15.1797 37.5882 14.9487 37.1398 14.6863C37.1043 14.6652 37.1015 14.6134 37.1341 14.5887C37.2285 14.5165 37.3229 14.4414 37.413 14.3656C37.4293 14.3518 37.452 14.3489 37.4711 14.3576C40.417 15.73 43.6062 15.73 46.5172 14.3576C46.5364 14.3481 46.5591 14.3511 46.5761 14.3649C46.6662 14.4407 46.7606 14.5165 46.8557 14.5887C46.8883 14.6134 46.8862 14.6652 46.8507 14.6863C46.4023 14.9538 45.9361 15.1797 45.4459 15.3685C45.414 15.3809 45.3998 15.4188 45.4154 15.4501C45.6857 15.9844 45.9943 16.4931 46.3342 16.9756C46.3484 16.996 46.3739 17.0047 46.3973 16.9974C47.8681 16.5332 49.3595 15.8328 50.8991 14.679C50.9126 14.6688 50.9211 14.6535 50.9225 14.6368C51.2978 10.6748 50.2939 7.23329 48.2612 4.18238C48.2562 4.17219 48.2477 4.1649 48.2378 4.16052ZM39.015 12.5494C38.1281 12.5494 37.3973 11.7185 37.3973 10.6982C37.3973 9.67778 38.114 8.84693 39.015 8.84693C39.9232 8.84693 40.6469 9.68508 40.6327 10.6982C40.6327 11.7185 39.9161 12.5494 39.015 12.5494ZM44.9961 12.5494C44.1092 12.5494 43.3784 11.7185 43.3784 10.6982C43.3784 9.67778 44.095 8.84693 44.9961 8.84693C45.9042 8.84693 46.6279 9.68508 46.6137 10.6982C46.6137 11.7185 45.9042 12.5494 44.9961 12.5494Z" fill="#5865F2"/>
    <path d="M74 1C69.0295 1 65 5.05026 65 10.0463C65 14.5817 68.3239 18.3265 72.6549 18.9807V12.4439H70.4282V10.066H72.6549V8.48372C72.6549 5.86401 73.9247 4.7139 76.0909 4.7139C77.1283 4.7139 77.6769 4.7912 77.9367 4.82657V6.90227H76.459C75.5394 6.90227 75.2183 7.77853 75.2183 8.76621V10.066H77.9134L77.5476 12.4439H75.2183V19C79.6111 18.4009 83 14.6257 83 10.0463C83 5.05026 78.9705 1 74 1Z" fill="#1778F2"/>
    <path d="M115 10.3339C115.014 10.3339 110.648 7.86971 110.635 7.79723C110.536 7.27348 110.412 6.4086 109.809 5.96119C109.291 5.57948 105.792 4.00435 105.785 3.98792C105.14 3.03477 104.569 2.03605 104.077 1C103.608 1.34481 103.228 1.79043 102.964 2.30237C102.7 2.81431 102.56 3.37881 102.555 3.95217C100.836 4.19328 99.2227 4.90819 97.9035 6.01337C101.325 5.2461 102.31 5.95345 102.31 5.95345C101.19 6.14874 100.111 6.52425 99.116 7.06474C97.6576 7.84941 97 8.79159 97 8.79159C97 8.79159 100.312 7.86487 102.853 8.76647C101.668 8.9301 100.566 9.4572 99.7064 10.272C104.974 10.9108 107.572 15.3849 108.665 19C109.067 12.57 105.796 10.128 105.796 10.128C106.745 10.1947 107.94 10.9175 108.704 11.9931C111.035 11.736 112.332 12.4347 112.321 12.4347C112.296 12.4347 113.581 12.0482 114.488 11.6394C114.41 11.5244 114.082 11.1253 113.895 10.9021C113.921 10.904 114.638 10.8625 115 10.3339ZM107.724 7.488C107.775 7.47544 108.917 7.16138 109.243 7.28217C109.539 7.39137 109.545 8.21662 109.545 8.21662C109.545 8.21662 108.868 8.30939 107.724 7.488Z" fill="#E5E5E5"/>
  </symbol>

  <symbol id="arrow-right" viewBox="0 0 18 18">
    <path d="M7.49988 4.5L6.44238 5.5575L9.87738 9L6.44238 12.4425L7.49988 13.5L11.9999 9L7.49988 4.5Z" fill="currentColor"/>
  </symbol>

  <symbol id="tiktok" viewBox="0 0 24 24">
    <path d="M17.6101 5.80839C16.6216 5.14117 15.9088 4.07314 15.686 2.82878C15.6382 2.55999 15.6115 2.28309 15.6115 2H12.4572L12.4522 15.0908C12.3992 16.5568 11.234 17.7335 9.80597 17.7335C9.36187 17.7335 8.944 17.6186 8.57583 17.418C7.73181 16.9581 7.15426 16.0421 7.15426 14.9879C7.15426 13.4738 8.34389 12.2418 9.8055 12.2418C10.0784 12.2418 10.3403 12.2885 10.5879 12.3686V9.03391C10.3315 8.99769 10.071 8.97529 9.8055 8.97529C6.60431 8.97529 4 11.6723 4 14.9879C4 17.0219 4.98116 18.822 6.47867 19.9105C7.42164 20.5963 8.56893 21 9.80597 21C13.0072 21 15.6115 18.303 15.6115 14.9879V8.34954C16.8485 9.26887 18.3644 9.81075 20 9.81075V6.54423C19.1192 6.54423 18.2986 6.27306 17.6101 5.80839Z" fill="#999999"/>
  </symbol>

  <symbol id="reddit" viewBox="0 0 24 24">
    <path d="M19.7708 9.36434C19.1391 9.36434 18.5833 9.63125 18.1743 10.0467C16.67 8.98652 14.6419 8.30417 12.3942 8.23167L13.5618 2.87557L17.2794 3.72488C17.2794 4.6514 18.0212 5.40782 18.9309 5.40782C19.8583 5.40782 20.6044 4.63102 20.6044 3.70371C20.6044 2.77641 19.8634 2 18.9317 2C18.2825 2 17.7227 2.39898 17.4434 2.94416L13.3376 2.01764C13.1309 1.96159 12.9286 2.11209 12.8735 2.32295L11.5919 8.22775C9.3618 8.3222 7.35516 9.00377 5.84618 10.0647C5.4372 9.63164 4.85946 9.36473 4.22782 9.36473C1.88446 9.36473 1.11689 12.5664 3.26298 13.6607C3.1872 13.9993 3.15282 14.3607 3.15282 14.7208C3.15282 18.3168 7.13212 21.2308 12.0177 21.2308C16.9243 21.2308 20.9036 18.3168 20.9036 14.7208C20.9036 14.3607 20.8661 13.9824 20.7735 13.643C22.8759 12.5441 22.1016 9.3663 19.7708 9.36434ZM6.66767 13.888C6.66767 12.9438 7.40946 12.1839 8.3411 12.1839C9.25126 12.1839 9.99344 12.9387 9.99344 13.888C9.99344 14.8153 9.25165 15.5709 8.3411 15.5709C7.41337 15.5752 6.66767 14.8153 6.66767 13.888ZM15.7001 17.8994C14.1661 19.4612 9.8368 19.4612 8.30165 17.8994C8.13251 17.7489 8.13251 17.4831 8.30165 17.3115C8.44931 17.161 8.71063 17.161 8.85829 17.3115C10.0298 18.5347 13.9165 18.5555 15.1391 17.3115C15.2868 17.161 15.5481 17.161 15.6958 17.3115C15.8684 17.4839 15.8684 17.7501 15.7001 17.8994ZM15.6657 15.5745C14.7556 15.5745 14.0141 14.8196 14.0141 13.8931C14.0141 12.9489 14.7559 12.189 15.6657 12.189C16.5931 12.189 17.3391 12.9438 17.3391 13.8931C17.3352 14.8153 16.5934 15.5745 15.6657 15.5745Z" fill="currentColor"/>
  </symbol>

  <symbol id="discord" viewBox="0 0 24 24">
    <path d="M19.6239 5.40921C18.2217 4.75695 16.7181 4.27639 15.1459 4.00115C15.1173 3.99584 15.0887 4.00912 15.0739 4.03567C14.8805 4.38436 14.6663 4.83925 14.5163 5.19679C12.8254 4.94015 11.1431 4.94015 9.48679 5.19679C9.33676 4.8313 9.11478 4.38436 8.92053 4.03567C8.90578 4.01 8.87718 3.99673 8.84855 4.00115C7.27725 4.27551 5.7736 4.75607 4.37052 5.40921C4.35838 5.41452 4.34797 5.42337 4.34106 5.43487C1.48894 9.75461 0.707629 13.9682 1.09092 18.1295C1.09265 18.1498 1.10392 18.1693 1.11953 18.1817C3.00127 19.5827 4.82406 20.4332 6.61301 20.9969C6.64164 21.0058 6.67197 20.9951 6.69019 20.9712C7.11337 20.3854 7.49059 19.7676 7.81402 19.118C7.83311 19.08 7.81489 19.0348 7.77588 19.0198C7.17754 18.7897 6.6078 18.5091 6.05975 18.1906C6.0164 18.1649 6.01293 18.102 6.05281 18.0719C6.16814 17.9843 6.2835 17.8932 6.39363 17.8011C6.41355 17.7843 6.44131 17.7808 6.46474 17.7914C10.0652 19.4579 13.9631 19.4579 17.521 17.7914C17.5445 17.7799 17.5722 17.7834 17.593 17.8002C17.7032 17.8923 17.8185 17.9843 17.9347 18.0719C17.9746 18.102 17.972 18.1649 17.9286 18.1906C17.3806 18.5153 16.8108 18.7897 16.2116 19.0189C16.1726 19.034 16.1553 19.08 16.1744 19.118C16.5047 19.7667 16.882 20.3845 17.2973 20.9704C17.3147 20.9951 17.3459 21.0058 17.3745 20.9969C19.1721 20.4332 20.9949 19.5827 22.8766 18.1817C22.8931 18.1693 22.9035 18.1507 22.9053 18.1304C23.364 13.3194 22.1369 9.14042 19.6525 5.43575C19.6465 5.42337 19.6361 5.41452 19.6239 5.40921ZM8.35169 15.5957C7.26771 15.5957 6.37454 14.5868 6.37454 13.3478C6.37454 12.1087 7.25039 11.0998 8.35169 11.0998C9.46163 11.0998 10.3462 12.1176 10.3288 13.3478C10.3288 14.5868 9.45296 15.5957 8.35169 15.5957ZM15.6619 15.5957C14.5779 15.5957 13.6847 14.5868 13.6847 13.3478C13.6847 12.1087 14.5606 11.0998 15.6619 11.0998C16.7718 11.0998 17.6563 12.1176 17.639 13.3478C17.639 14.5868 16.7718 15.5957 15.6619 15.5957Z" fill="currentColor"/>
  </symbol>

  <symbol id="twitter" viewBox="0 0 24 24">
    <path d="M20 8C20 8.11765 20 8.35294 20 8.47059C20 13.7647 15.8824 20 8.35294 20C6 20 3.88235 19.2941 2 18.2353C2.35294 18.2353 2.70588 18.2353 2.94118 18.2353C4.82353 18.2353 6.58824 17.6471 8 16.4706C6.23529 16.4706 4.70588 15.2941 4.11765 13.6471C4.35294 13.6471 4.58824 13.7647 4.94118 13.7647C5.29412 13.7647 5.64706 13.7647 6 13.6471C4.11765 13.2941 2.70588 11.6471 2.70588 9.64706C3.29412 10 3.88235 10.1176 4.58824 10.1176C3.52941 9.41176 2.70588 8.11765 2.70588 6.70588C2.70588 6 2.94118 5.29412 3.29412 4.70588C5.29412 7.17647 8.35294 8.82353 11.7647 8.94118C11.6471 8.58824 11.6471 8.35294 11.6471 8C11.6471 5.76471 13.5294 4 15.7647 4C16.9412 4 18 4.47059 18.8235 5.29412C19.7647 5.05882 20.5882 4.82353 21.4118 4.35294C21.0588 5.29412 20.4706 6.11765 19.6471 6.58824C20.4706 6.47059 21.2941 6.23529 22 6C21.4118 6.70588 20.7059 7.41177 20 8Z" fill="currentcolor"/>      
  </symbol>

  <symbol id="clear" width="32" height="32" viewBox="0 0 32 32">
    <path fill-rule="evenodd" clip-rule="evenodd" d="M10.2929 10.2929C10.6834 9.90237 11.3166 9.90237 11.7071 10.2929L16 14.5858L20.2929 10.2929C20.6834 9.90237 21.3166 9.90237 21.7071 10.2929C22.0976 10.6834 22.0976 11.3166 21.7071 11.7071L17.4142 16L21.7071 20.2929C22.0976 20.6834 22.0976 21.3166 21.7071 21.7071C21.3166 22.0976 20.6834 22.0976 20.2929 21.7071L16 17.4142L11.7071 21.7071C11.3166 22.0976 10.6834 22.0976 10.2929 21.7071C9.90237 21.3166 9.90237 20.6834 10.2929 20.2929L14.5858 16L10.2929 11.7071C9.90237 11.3166 9.90237 10.6834 10.2929 10.2929Z" fill="currentColor"/>
  </symbol>

  <symbol id="icon-view-small" viewBox="0 0 20 20">
    <path fill-rule="evenodd" clip-rule="evenodd" d="M10 15C13.8947 15 17.2116 11.9302 18.465 10.6013C18.7878 10.2591 18.7878 9.74088 18.465 9.39869C17.2116 8.06981 13.8947 5 10 5C6.10528 5 2.78837 8.06981 1.53499 9.39869C1.21223 9.74088 1.21223 10.2591 1.53499 10.6013C2.78837 11.9302 6.10528 15 10 15ZM10 13C11.6569 13 13 11.6569 13 10C13 8.34315 11.6569 7 10 7C8.34314 7 7 8.34315 7 10C7 11.6569 8.34314 13 10 13Z" fill="currentColor"/>
  </symbol>

  <symbol id="icon-cf" viewBox="0 0 20 20">
    <path d="M15.2716 7.62315C15.2716 7.62315 19.3551 6.97646 20 5.09035H13.7445V3.59375H0L1.69316 5.56691V7.58858C1.69316 7.58858 5.96542 7.36547 7.61799 8.62404C9.88011 10.7298 5.07377 13.5762 5.07377 13.5762L4.24959 16.3152C5.53839 15.0828 7.99472 13.4884 12.4983 13.5653C10.7845 14.1093 9.06117 14.9589 7.71958 16.3152H16.8236L15.9663 13.5762C15.9663 13.5762 9.36793 9.6687 15.2716 7.6234V7.62315Z" fill="white"/>
  </symbol>

  <symbol id="arrow-up" viewBox="0 0 24 24">
    <path fill-rule="evenodd" clip-rule="evenodd" d="M12.6247 5.21913C12.2595 4.92696 11.7405 4.92696 11.3753 5.21913L6.3753 9.21913C5.94404 9.56414 5.87412 10.1934 6.21913 10.6247C6.56413 11.056 7.19343 11.1259 7.62469 10.7809L11 8.08063L11 18C11 18.5523 11.4477 19 12 19C12.5523 19 13 18.5523 13 18L13 8.08062L16.3753 10.7809C16.8066 11.1259 17.4359 11.056 17.7809 10.6247C18.1259 10.1934 18.056 9.56414 17.6247 9.21913L12.6247 5.21913Z" fill="currentColor"/>
  </symbol>

  <symbol id="icon-small-chevron-right" viewBox="0 0 20 20">
    <path fill-rule="evenodd" clip-rule="evenodd" d="M12.8001 10.6001C13.0667 10.2445 13.0667 9.75561 12.8001 9.40006L9.80006 5.40006C9.46869 4.95823 8.84189 4.86869 8.40006 5.20006C7.95823 5.53143 7.86869 6.15823 8.20006 6.60006L10.7501 10.0001L8.20006 13.4001C7.86869 13.8419 7.95823 14.4687 8.40006 14.8001C8.84189 15.1314 9.46869 15.0419 9.80006 14.6001L12.8001 10.6001Z" fill="currentColor"/>
  </symbol>

  <symbol id="icon-chevron-down"  viewBox="0 0 20 20">
    <path fill-rule="evenodd" clip-rule="evenodd" d="M10.6247 13.7809C10.2594 14.073 9.74049 14.073 9.37527 13.7809L4.37527 9.78087C3.94401 9.43586 3.87408 8.80657 4.21909 8.37531C4.5641 7.94404 5.1934 7.87412 5.62466 8.21913L9.99996 11.7194L14.3753 8.21913C14.8065 7.87412 15.4358 7.94404 15.7808 8.37531C16.1258 8.80657 16.0559 9.43586 15.6247 9.78087L10.6247 13.7809Z" fill="currentColor"/>
  </symbol>

  <symbol id="icon-chevron-left" viewBox="0 0 20 20">
    <path fill-rule="evenodd" clip-rule="evenodd" d="M11.6247 15.7809C12.056 15.4359 12.1259 14.8066 11.7809 14.3753L8.28063 10L11.7809 5.62472C12.1259 5.19346 12.056 4.56416 11.6247 4.21916C11.1934 3.87415 10.5641 3.94407 10.2191 4.37533L6.21913 9.37533C5.92696 9.74055 5.92696 10.2595 6.21913 10.6247L10.2191 15.6247C10.5641 16.056 11.1934 16.1259 11.6247 15.7809Z" fill="currentColor"/>
  </symbol>

  <symbol id="icon-chevron-right" viewBox="0 0 20 20">
    <path fill-rule="evenodd" clip-rule="evenodd" d="M12.8001 10.6001C13.0667 10.2445 13.0667 9.75561 12.8001 9.40006L9.80006 5.40006C9.46869 4.95823 8.84189 4.86869 8.40006 5.20006C7.95823 5.53143 7.86869 6.15823 8.20006 6.60006L10.7501 10.0001L8.20006 13.4001C7.86869 13.8419 7.95823 14.4687 8.40006 14.8001C8.84189 15.1314 9.46869 15.0419 9.80006 14.6001L12.8001 10.6001Z" fill="currentColor"/>
  </symbol>

  <symbol id="2" viewBox="0 0 20 20">
    <path fill-rule="evenodd" clip-rule="evenodd" d="M5.29289 5.29289C5.68342 4.90237 6.31658 4.90237 6.70711 5.29289L10 8.58579L13.2929 5.29289C13.6834 4.90237 14.3166 4.90237 14.7071 5.29289C15.0976 5.68342 15.0976 6.31658 14.7071 6.70711L11.4142 10L14.7071 13.2929C15.0976 13.6834 15.0976 14.3166 14.7071 14.7071C14.3166 15.0976 13.6834 15.0976 13.2929 14.7071L10 11.4142L6.70711 14.7071C6.31658 15.0976 5.68342 15.0976 5.29289 14.7071C4.90237 14.3166 4.90237 13.6834 5.29289 13.2929L8.58579 10L5.29289 6.70711C4.90237 6.31658 4.90237 5.68342 5.29289 5.29289Z" fill="currentColor"/>
  </symbol>

  <symbol id="icon-external-link" viewBox="0 0 20 20">
    <path d="M11 2C10.4477 2 10 2.44772 10 3C10 3.55228 10.4477 4 11 4H14.5858L9.29289 9.29289C8.90237 9.68342 8.90237 10.3166 9.29289 10.7071C9.68342 11.0976 10.3166 11.0976 10.7071 10.7071L16 5.41421V9C16 9.55228 16.4477 10 17 10C17.5523 10 18 9.55228 18 9V3C18 2.44772 17.5523 2 17 2H11Z" fill="currentColor"/>
    <path d="M3 4C2.44772 4 2 4.44772 2 5V17C2 17.5523 2.44772 18 3 18H15C15.5523 18 16 17.5521 16 16.9998V13H14V16H4V6H7V4H3Z" fill="currentColor"/>
  </symbol>

  <symbol id="icon-upload" viewBox="0 0 20 20">
    <path fill-rule="evenodd" clip-rule="evenodd" d="M16 18C16 18.5523 15.5523 19 15 19L5.00003 19C4.44775 19 4.00003 18.5523 4.00003 18C4.00003 17.4477 4.44775 17 5.00003 17L15 17C15.5523 17 16 17.4477 16 18Z" fill="white"/>
    <path fill-rule="evenodd" clip-rule="evenodd" d="M9.37531 1.21913C9.74053 0.926956 10.2595 0.926956 10.6247 1.21913L15.6247 5.21913C16.056 5.56414 16.1259 6.19343 15.7809 6.62469C15.4359 7.05596 14.8066 7.12588 14.3753 6.78087L11 4.08062L11 13C11 13.5523 10.5523 14 10 14C9.44772 14 9.00001 13.5523 9.00001 13L9.00001 4.08062L5.6247 6.78087C5.19344 7.12588 4.56415 7.05596 4.21914 6.62469C3.87413 6.19343 3.94405 5.56414 4.37531 5.21913L9.37531 1.21913Z" fill="white"/>
  </symbol>

  <symbol id="icon-bell" viewBox="0 0 24 24">
    <path d="M14 5L13.9999 5.01904C15.3327 5.07131 16.2671 5.26703 17 6C17.9999 7 17.9999 9 17.9999 9L18 14C18 14 18.5 14.25 19.25 15C20 15.75 20 17 20 17H4C4 17 4 15.75 4.75 15C5.5 14.25 6 14 6 14V9C6 9 6 7 7 6C7.63347 5.36653 8.7184 5.13434 10.0006 5.04924C10.0002 5.03288 10 5.01646 10 5C10 3.89543 10.8954 3 12 3C13.1046 3 14 3.89543 14 5Z" fill="currentColor"/>
    <path d="M9.16992 19H14.8284C14.4166 20.1652 13.3054 21 11.9991 21C10.6929 21 9.58172 20.1652 9.16992 19Z" fill="currentColor"/>      
  </symbol>

  <symbol id="icon-message" viewBox="0 0 24 24">
    <path fill-rule="evenodd" clip-rule="evenodd" d="M4 3H20C21.1 3 22 3.855 22 4.9V17.1C22 18.145 21.1 19 20 19H6L2.84437 21.8625C2.52588 22.1651 2 21.9393 2 21.5V4.9C2 3.855 2.9 3 4 3ZM6 7H18V9H6V7ZM6 10H18V12H6V10ZM6 13H18V15H6V13Z" fill="currentColor"/>
  </symbol>

  <symbol id="icon-profile" width="24" height="24" viewBox="0 0 24 24" fill="none">
    <path d="M12 12C14.2091 12 16 10.2091 16 8C16 5.79086 14.2091 4 12 4C9.79086 4 8 5.79086 8 8C8 10.2091 9.79086 12 12 12Z" fill="currentColor"/>
    <path d="M10 14C6.13401 14 3 17.134 3 21H21C21 17.134 17.866 14 14 14H10Z" fill="currentColor"/>
  </symbol>

  <symbol id="icon-following" viewBox="0 0 24 24">
    <path d="M11.0616 4.59852C8.98867 2.46716 5.62771 2.46716 3.55473 4.59852C1.48175 6.72988 1.48176 10.1855 3.55474 12.3169L4.49309 13.2817L11.2831 20.263C11.6758 20.6667 12.3242 20.6667 12.7169 20.263L19.5069 13.2817L20.4453 12.3169C22.5182 10.1855 22.5182 6.72988 20.4453 4.59852C18.3723 2.46716 15.0113 2.46716 12.9384 4.59852L12 5.56331L11.0616 4.59852Z" fill="currentColor"/>
  </symbol>

  <symbol id="icon-dashboard" viewBox="0 0 24 24">
    <path fill-rule="evenodd" clip-rule="evenodd" d="M21 4C21 3.44772 20.5523 3 20 3H12C11.4477 3 11 3.44772 11 4L11 10C11 10.5523 11.4477 11 12 11H20C20.5523 11 21 10.5523 21 10V4ZM19 5L13 5V9L19 9V5Z" fill="currentColor"/>
    <path fill-rule="evenodd" clip-rule="evenodd" d="M12 13C12.5523 13 13 13.4477 13 14V20C13 20.5523 12.5523 21 12 21H4C3.44772 21 3 20.5523 3 20V14C3 13.4477 3.44771 13 4 13H12ZM5 19L5 15H11L11 19H5Z" fill="currentColor"/>
    <path d="M21 14C21 13.4477 20.5523 13 20 13H16C15.4477 13 15 13.4477 15 14V20C15 20.5523 15.4477 21 16 21H20C20.5523 21 21 20.5523 21 20V14Z" fill="currentColor"/>
    <path d="M9 4C9 3.44772 8.55228 3 8 3H4C3.44772 3 3 3.44772 3 4V10C3 10.5523 3.44772 11 4 11H8C8.55228 11 9 10.5523 9 10L9 4Z" fill="currentColor"/>
  </symbol>

  <symbol id="icon-reward-store" viewBox="0 0 24 24">
    <path d="M13 3H11V5.0913C10.7093 5.14295 10.4324 5.21649 10.1694 5.31194C9.59647 5.5199 9.10479 5.80689 8.69442 6.1729C8.29178 6.53892 7.97819 6.959 7.75365 7.43315C7.53685 7.90731 7.42845 8.41058 7.42845 8.94296C7.42845 9.5003 7.53298 9.98693 7.74204 10.4029C7.95109 10.8188 8.2492 11.1806 8.63634 11.4884C9.03123 11.7962 9.50742 12.0582 10.0649 12.2745C10.6301 12.4908 11.2612 12.678 11.9581 12.836C12.7866 13.0107 13.406 13.2187 13.8164 13.4599C14.2345 13.6928 14.5094 13.9548 14.641 14.246C14.7804 14.5288 14.85 14.8366 14.85 15.1693C14.85 15.5437 14.7455 15.8764 14.5365 16.1676C14.3274 16.4587 14.0216 16.6875 13.6189 16.8538C13.224 17.0202 12.7324 17.1034 12.1439 17.1034C11.7025 17.1034 11.2573 17.0285 10.8082 16.8788C10.3591 16.7207 9.97974 16.4587 9.67003 16.0927C9.43179 15.8048 9.27601 15.4405 9.20271 15H7.01953C7.07968 15.5969 7.27019 16.1691 7.59105 16.7166C7.98594 17.3904 8.56666 17.9394 9.33321 18.3636C9.82009 18.6331 10.3757 18.817 11 18.9153V21H13V18.9531C13.4028 18.907 13.7794 18.827 14.13 18.713C14.7262 18.5134 15.2372 18.2389 15.6631 17.8895C16.0967 17.5318 16.4257 17.1075 16.6503 16.6168C16.8826 16.126 16.9987 15.5853 16.9987 14.9947C16.9987 14.2709 16.8361 13.6554 16.5109 13.1479C16.1857 12.6405 15.6902 12.2121 15.0243 11.8627C14.3584 11.5134 13.5105 11.2139 12.4807 10.9643C11.8922 10.8229 11.4083 10.6815 11.0289 10.5401C10.6495 10.3987 10.3553 10.249 10.1462 10.0909C9.93716 9.92454 9.79004 9.74569 9.70487 9.55437C9.62744 9.35472 9.58872 9.13012 9.58872 8.88057C9.58872 8.54783 9.67003 8.23173 9.83263 7.93226C10.003 7.6328 10.2701 7.3874 10.634 7.19608C11.0057 6.99643 11.4896 6.89661 12.0858 6.89661C12.6511 6.89661 13.1272 7.01307 13.5144 7.24599C13.9093 7.47891 14.2074 7.77421 14.4087 8.13191C14.577 8.41318 14.6776 8.70255 14.7104 9H16.8659C16.8334 8.3116 16.6454 7.68118 16.3018 7.10873C15.9224 6.46821 15.3766 5.95662 14.6642 5.57397C14.178 5.3128 13.6233 5.14074 13 5.05783V3Z" fill="currentColor"/>
  </symbol>

  <symbol id="icon-settings" viewBox="0 0 24 24">
    <path fill-rule="evenodd" clip-rule="evenodd" d="M9.81056 2.75746C9.92185 2.3123 10.3218 2 10.7807 2H13.2191C13.678 2 14.078 2.3123 14.1893 2.75746L14.9076 5.63058C15.3144 5.8166 15.7003 6.04045 16.0608 6.29764L18.9099 5.48263C19.351 5.35643 19.8215 5.54668 20.0509 5.94407L21.2701 8.05583C21.4996 8.45322 21.4291 8.95576 21.0992 9.27473L18.9687 11.3347C18.9894 11.5537 18.9999 11.7756 18.9999 12C18.9999 12.2246 18.9894 12.4466 18.9687 12.6658L21.0985 14.7252C21.4284 15.0441 21.4989 15.5467 21.2694 15.9441L20.0502 18.0558C19.8208 18.4532 19.3503 18.6435 18.9092 18.5173L16.0607 17.7024C15.7002 17.9596 15.3144 18.1834 14.9076 18.3694L14.1893 21.2425C14.078 21.6877 13.678 22 13.2191 22H10.7807C10.3218 22 9.92185 21.6877 9.81056 21.2425L9.09228 18.3694C8.68548 18.1834 8.2996 17.9596 7.93914 17.7024L5.09069 18.5173C4.64952 18.6435 4.17907 18.4532 3.94963 18.0558L2.73041 15.9441C2.50098 15.5467 2.57144 15.0441 2.90132 14.7252L5.03117 12.6658C5.0105 12.4466 4.99992 12.2246 4.99992 12C4.99992 11.7756 5.01048 11.5537 5.03112 11.3347L2.90062 9.27473C2.57074 8.95576 2.50027 8.45322 2.72971 8.05583L3.94893 5.94407C4.17836 5.54668 4.64881 5.35643 5.08998 5.48263L7.93904 6.29764C8.29953 6.04045 8.68545 5.8166 9.09228 5.63058L9.81056 2.75746ZM12 15C10.3431 15 9 13.6569 9 12C9 10.3431 10.3431 9 12 9C13.6569 9 15 10.3431 15 12C15 13.6569 13.6569 15 12 15Z" fill="currentColor"/>
  </symbol>

  <symbol id="icon-logout" viewBox="0 0 24 24" >
    <path d="M19 4H10V2H19C20.6569 2 22 3.34315 22 5V19C22 20.6569 20.6569 22 19 22H10V20H19C19.5523 20 20 19.5523 20 19V5C20 4.44772 19.5523 4 19 4Z" fill="currentColor"/>
    <path d="M2.2 12.6001C1.93333 12.2445 1.93333 11.7556 2.2 11.4001L5.2 7.40006C5.53137 6.95823 6.15817 6.86869 6.6 7.20006C7.04183 7.53143 7.13137 8.15823 6.8 8.60006L5 11.0001H12C12.5523 11.0001 13 11.4478 13 12.0001C13 12.5523 12.5523 13.0001 12 13.0001H5L6.8 15.4001C7.13137 15.8419 7.04183 16.4687 6.6 16.8001C6.15817 17.1314 5.53137 17.0419 5.2 16.6001L2.2 12.6001Z" fill="currentColor"/>
  </symbol>

  <symbol id="icon-heart" viewBox="0 0 20 20">
    <path d="M9.6941 16.9374C9.62723 16.9127 9.53909 16.8717 9.49824 16.8463C9.42695 16.802 8.95707 16.3331 8.09859 15.4496C7.87709 15.2216 7.51874 14.8535 7.30226 14.6316C7.08578 14.4097 6.37073 13.6734 5.71326 12.9954C4.58389 11.8845 3.25642 10.4905 2.48892 9.36636C2.13406 8.65228 1.99699 8.02266 2.0228 7.22523C2.03618 6.81185 2.07224 6.5603 2.16992 6.19884C2.5997 4.60848 3.87669 3.40511 5.47619 3.08321C5.70034 3.0381 5.80914 3.03061 6.24425 3.03031C6.68463 3.03 6.78594 3.03699 7.01613 3.08359C7.36409 3.15403 7.7708 3.29157 8.05941 3.4364C8.60401 3.70969 8.8496 3.90051 9.48306 4.54257L10.003 5.06955L10.4969 4.56536C11.1428 3.90603 11.3875 3.71377 11.9217 3.44582C12.2282 3.29213 12.6291 3.15542 12.9839 3.08359C13.2141 3.03699 13.3154 3.03 13.7558 3.03031C14.1909 3.03061 14.2997 3.03811 14.5238 3.08321C16.3665 3.45405 17.7424 4.97367 17.9598 6.87788C18.0767 7.90148 17.8074 9.00769 17.2362 9.85023C16.996 10.2045 16.9947 10.206 15.46 11.7857C15.0537 12.2039 14.022 13.2667 13.1673 14.1475C10.3816 17.0183 10.5913 16.8106 10.3802 16.9078C10.2042 16.9889 9.87173 17.0033 9.6941 16.9375V16.9374Z" />
  </symbol>

  <symbol id="icon-heart-hollow" viewBox="0 0 20 20">
    <path d="M9.6941 16.9374C9.62723 16.9127 9.53909 16.8717 9.49824 16.8463C9.42695 16.802 8.95707 16.3331 8.09859 15.4496C7.87709 15.2216 7.51874 14.8535 7.30226 14.6316C7.08578 14.4097 6.37073 13.6734 5.71326 12.9954C4.58389 11.8845 3.25642 10.4905 2.48892 9.36636C2.13406 8.65228 1.99699 8.02266 2.0228 7.22523C2.03618 6.81185 2.07224 6.5603 2.16992 6.19884C2.5997 4.60848 3.87669 3.40511 5.47619 3.08321C5.70034 3.0381 5.80914 3.03061 6.24425 3.03031C6.68463 3.03 6.78594 3.03699 7.01613 3.08359C7.36409 3.15403 7.7708 3.29157 8.05941 3.4364C8.60401 3.70969 8.8496 3.90051 9.48306 4.54257L10.003 5.06955L10.4969 4.56536C11.1428 3.90603 11.3875 3.71377 11.9217 3.44582C12.2282 3.29213 12.6291 3.15542 12.9839 3.08359C13.2141 3.03699 13.3154 3.03 13.7558 3.03031C14.1909 3.03061 14.2997 3.03811 14.5238 3.08321C16.3665 3.45405 17.7424 4.97367 17.9598 6.87788C18.0767 7.90148 17.8074 9.00769 17.2362 9.85023C16.996 10.2045 16.9947 10.206 15.46 11.7857C15.0537 12.2039 14.022 13.2667 13.1673 14.1475C10.3816 17.0183 10.5913 16.8106 10.3802 16.9078C10.2042 16.9889 9.87173 17.0033 9.6941 16.9375V16.9374Z" fill="none" stroke="currentColor" stroke-width="2" />
  </symbol>

  <symbol id="icon-menu" viewBox="0 0 20 20">
    <path d="M10 5C11.1046 5 12 4.10457 12 3C12 1.89543 11.1046 1 10 1C8.89543 1 8 1.89543 8 3C8 4.10457 8.89543 5 10 5Z" fill="currentColor"/>
    <path d="M12 10C12 11.1046 11.1046 12 10 12C8.89543 12 8 11.1046 8 10C8 8.89543 8.89543 8 10 8C11.1046 8 12 8.89543 12 10Z" fill="currentColor"/>
    <path d="M12 17C12 18.1046 11.1046 19 10 19C8.89543 19 8 18.1046 8 17C8 15.8954 8.89543 15 10 15C11.1046 15 12 15.8954 12 17Z" fill="currentColor"/>
  </symbol>

  <symbol id="icon-delete" viewBox="0 0 20 20">
    <path d="M7 2C7 1.44772 7.44772 1 8 1H12C12.5523 1 13 1.44772 13 2V3H16C16.5523 3 17 3.44772 17 4V5H3V4C3 3.44772 3.44772 3 4 3H7V2Z" fill="#E5E5E5"/>
    <path fill-rule="evenodd" clip-rule="evenodd" d="M16 7H4V18C4 18.5523 4.44772 19 5 19H15C15.5523 19 16 18.5523 16 18V7ZM9 17V9H7V17H9ZM11 17V9H13V17H11Z" fill="#E5E5E5"/>
  </symbol>

  <symbol id="icon-edit" viewBox="0 0 20 20">
    <path d="M5.82571 10.9726L8.97616 14.2327L18.7001 4.55074C19.0946 4.15794 19.1007 3.51488 18.7137 3.11443L16.9646 1.30444C16.5776 0.90399 15.9441 0.897792 15.5496 1.2906L5.82571 10.9726Z" fill="#E5E5E5"/>
    <path d="M7.3709 15.8314L4.22045 12.5712L2.12572 16.4956C1.65632 17.375 2.58986 18.3411 3.46511 17.8816L7.3709 15.8314Z" fill="#E5E5E5"/>
  </symbol>

  <symbol id="icon-small-message" viewBox="0 0 20 20">
    <path fill-rule="evenodd" clip-rule="evenodd" d="M2.8 2H17.2C18.19 2 19 2.765 19 3.7V14.3C19 15.235 18.19 16 17.2 16H4.6L1.84331 18.8635C1.52444 19.1647 1 18.9386 1 18.5V3.7C1 2.765 1.81 2 2.8 2ZM5 5H15V7H5V5ZM5 8H15V10H5V8ZM5 11H15V13H5V11Z" fill="currentColor"/>
  </symbol>

  <symbol id="icon-small-quote" viewBox="0 0 20 20">
    <path d="M3 4C2.44772 4 2 4.44772 2 5V11H6.5L4.3618 15.2764C4.19558 15.6088 4.43733 16 4.80902 16H6.19098C6.38037 16 6.5535 15.893 6.6382 15.7236L9 11V5C9 4.44772 8.55228 4 8 4H3Z" fill="currentColor"/>
    <path d="M11 5C11 4.44772 11.4477 4 12 4H17C17.5523 4 18 4.44772 18 5V11L15.6382 15.7236C15.5535 15.893 15.3804 16 15.191 16H13.809C13.4373 16 13.1956 15.6088 13.3618 15.2764L15.5 11H11V5Z" fill="currentColor"/>
  </symbol>

  <symbol id="icon-small-flag" viewBox="0 0 20 20">
    <path d="M3.00334 1C3.55748 1 4.00669 1.40294 4.00669 1.9V3H16.9948C17.8316 3 18.3007 3.96088 17.7843 4.61714L15.5156 7.5L17.7843 10.3829C18.3007 11.0391 17.8316 12 16.9948 12H4.00669V18.1C4.00669 18.5971 3.55748 19 3.00334 19C2.44921 19 2 18.5971 2 18.1V1.9C2 1.40294 2.44921 1 3.00334 1Z" fill="currentColor"/>
  </symbol>

  <symbol id="site-logo" viewBox="0 0 164 25">
    <path d="M28.3517 7.55049C28.3517 7.55049 35.9328 6.33868 37.13 2.8044H25.5167V0H0L3.14336 3.69741V7.4857C3.14336 7.4857 11.0748 7.06763 14.1428 9.42599C18.3424 13.3718 9.41946 18.7056 9.41946 18.7056L7.88938 23.8381C10.282 21.5287 14.8422 18.5411 23.2031 18.6851C20.0214 19.7044 16.8221 21.2966 14.3314 23.8381H31.233L29.6414 18.7056C29.6414 18.7056 17.3916 11.3831 28.3517 7.55049Z" fill="white"/>
    <path d="M47.562 20.1398C49.5189 20.1398 50.9401 19.5028 52.1748 18.276L50.8236 16.5066C49.8451 17.4739 48.8899 17.8277 47.725 17.8277C45.7215 17.8277 44.0208 16.4358 44.0208 13.7227C44.0208 11.1983 45.6982 9.57042 47.8648 9.57042C49.0297 9.57042 49.9616 9.97149 50.7537 10.7972L52.1049 8.95701C50.9867 7.84817 49.5422 7.28196 47.7716 7.28196C44.1606 7.28196 41.4581 9.90071 41.4581 13.6991C41.4581 17.7334 44.0907 20.1398 47.562 20.1398Z" fill="white"/>
    <path d="M65.6388 7.54147H63.1227V14.0294C63.1227 16.7425 61.6783 17.8277 60.0009 17.8277C58.2536 17.8277 57.2285 16.7661 57.2285 14.5012V7.54147H54.7357V14.8079C54.7357 18.3704 56.5296 20.1634 59.1156 20.1634C60.8862 20.1634 62.2607 19.432 63.146 17.9457L63.2392 19.8567H65.6388V7.54147Z" fill="white"/>
    <path d="M71.9773 10.0187L71.9074 7.54147H69.5078V19.8567H72.0006V13.9114C72.0006 10.5613 74.4701 9.78275 76.5436 9.9243V7.35274C74.9594 7.35274 73.0956 7.82458 71.9773 10.0187Z" fill="white"/>
    <path d="M83.11 20.1398C85.7426 20.1398 87.9325 18.7242 87.9325 16.2706C87.9325 11.5522 80.9433 13.4632 80.9433 10.8916C80.9433 10.0423 81.6888 9.40527 83.2498 9.40527C84.6243 9.40527 85.6727 9.9243 86.5114 10.75L87.8393 9.05138C86.7676 8.01332 85.2533 7.28196 83.1799 7.28196C80.2677 7.28196 78.4039 8.90983 78.4039 11.0331C78.4039 15.7988 85.3931 13.6283 85.3931 16.4358C85.3931 17.4974 84.4612 17.9929 83.0867 17.9929C81.6422 17.9929 80.5007 17.4974 79.3824 16.365L77.938 18.0401C79.1494 19.2433 80.6405 20.1398 83.11 20.1398Z" fill="white"/>
    <path d="M101.799 13.6519C101.799 9.57042 99.423 7.21118 96.0449 7.21118C92.7134 7.21118 89.941 9.71197 89.941 13.6755C89.941 17.7334 92.4571 20.1634 96.1614 20.1634C98.2814 20.1634 99.9122 19.5264 101.24 18.0637L99.8889 16.4122C98.794 17.4974 97.699 17.9221 96.3477 17.9221C94.1345 17.9221 92.7367 16.6953 92.5037 14.3361H101.776C101.776 14.1001 101.799 13.8878 101.799 13.6519ZM96.0216 9.33449C97.8854 9.33449 99.0036 10.6085 99.2133 12.5431H92.5503C92.8764 10.6085 94.2277 9.33449 96.0216 9.33449Z" fill="white"/>
    <path d="M107.807 7.54147V6.55059C107.807 5.04068 108.6 4.26214 109.811 4.26214C110.533 4.26214 111.116 4.49806 111.652 4.92272L112.723 3.08252C111.861 2.46912 110.859 2.11523 109.625 2.11523C106.899 2.11523 105.315 3.81388 105.315 6.66856V7.54147H103.404L102.845 9.71197H105.315V19.8567H107.807V9.71197H111.908V7.54147H107.807Z" fill="white"/>
    <path d="M119.097 20.1634C122.499 20.1634 125.434 17.7334 125.434 13.6991C125.434 9.59401 122.475 7.21118 119.121 7.21118C115.719 7.21118 112.76 9.6176 112.76 13.6991C112.76 17.757 115.743 20.1634 119.097 20.1634ZM119.097 17.9221C117.07 17.9221 115.323 16.3414 115.323 13.6991C115.323 11.0331 117.117 9.45245 119.121 9.45245C121.148 9.45245 122.872 11.0331 122.872 13.6755C122.872 16.3414 121.078 17.9221 119.097 17.9221Z" fill="white"/>
    <path d="M130.903 10.0187L130.833 7.54147H128.434V19.8567H130.926V13.9114C130.926 10.5613 133.396 9.78275 135.469 9.9243V7.35274C133.885 7.35274 132.021 7.82458 130.903 10.0187Z" fill="white"/>
    <path d="M149.084 7.54147H146.684L146.637 9.45245C145.775 8.0605 144.401 7.21118 142.537 7.21118C139.229 7.21118 136.922 10.0187 136.922 13.5575C136.922 17.0492 139.019 19.8567 142.49 19.8567C144.331 19.8567 145.729 18.9838 146.591 17.5918V19.1725C146.591 21.7913 145.076 22.7349 142.817 22.7349C141.628 22.7349 140.557 22.4282 139.648 21.98L138.879 24.1269C140.021 24.6931 141.326 24.9998 142.863 24.9998C146.521 24.9998 149.084 23.1832 149.084 19.0309V7.54147ZM142.933 17.6154C140.953 17.6154 139.485 16.0111 139.485 13.5339C139.485 11.0567 141.069 9.49964 143.119 9.49964C145.123 9.49964 146.591 10.9624 146.591 13.5339C146.591 16.1055 144.983 17.6154 142.933 17.6154Z" fill="white"/>
    <path d="M163.956 13.6519C163.956 9.57042 161.579 7.21118 158.201 7.21118C154.87 7.21118 152.097 9.71197 152.097 13.6755C152.097 17.7334 154.614 20.1634 158.318 20.1634C160.438 20.1634 162.069 19.5264 163.397 18.0637L162.045 16.4122C160.95 17.4974 159.855 17.9221 158.504 17.9221C156.291 17.9221 154.893 16.6953 154.66 14.3361H163.932C163.932 14.1001 163.956 13.8878 163.956 13.6519ZM158.178 9.33449C160.042 9.33449 161.16 10.6085 161.37 12.5431H154.707C155.033 10.6085 156.384 9.33449 158.178 9.33449Z" fill="white"/>
  </symbol>

  <symbol id="icon-close" viewBox="0 0 20 20">
    <path fill-rule="evenodd" clip-rule="evenodd" d="M4.29289 4.29289C4.68342 3.90237 5.31658 3.90237 5.70711 4.29289L10 8.58579L14.2929 4.29289C14.6834 3.90237 15.3166 3.90237 15.7071 4.29289C16.0976 4.68342 16.0976 5.31658 15.7071 5.70711L11.4142 10L15.7071 14.2929C16.0976 14.6834 16.0976 15.3166 15.7071 15.7071C15.3166 16.0976 14.6834 16.0976 14.2929 15.7071L10 11.4142L5.70711 15.7071C5.31658 16.0976 4.68342 16.0976 4.29289 15.7071C3.90237 15.3166 3.90237 14.6834 4.29289 14.2929L8.58579 10L4.29289 5.70711C3.90237 5.31658 3.90237 4.68342 4.29289 4.29289Z" fill="currentColor"/>
  </symbol>

  <symbol id="icon-modal-close" viewBox="0 0 30 30">
    <path d="M15.5941 15.0254L19.6535 10.8629C19.8515 10.6599 19.8515 10.3553 19.6535 10.1523C19.4554 9.94924 19.1584 9.94924 18.9604 10.1523L14.901 14.3147L10.8416 10.1523C10.6436 9.94924 10.3465 9.94924 10.1485 10.1523C9.95049 10.3553 9.95049 10.6599 10.1485 10.8629L14.2079 15.0254L10.1485 19.1878C9.95049 19.3909 9.95049 19.6954 10.1485 19.8985C10.2475 20 10.3465 20 10.5446 20C10.7426 20 10.8416 20 10.9406 19.8985L15 15.736L19.0594 19.8985C19.1584 20 19.2574 20 19.4554 20C19.6535 20 19.7525 20 19.8515 19.8985C20.0495 19.6954 20.0495 19.3909 19.8515 19.1878L15.5941 15.0254Z" fill="currentColor"/>
  </symbol>

  <symbol id="icon-warning" viewBox="0 0 24 24">
    <path fill-rule="evenodd" clip-rule="evenodd" d="M12.8384 3.49213C12.4623 2.83596 11.5377 2.83596 11.1616 3.49213L3.13577 17.4956C2.75435 18.1611 3.22186 19 3.97412 19H20.0259C20.7781 19 21.2456 18.1611 20.8642 17.4956L12.8384 3.49213ZM11.0274 8.01901H12.9726V13.0104H11.0274V8.01901ZM12.9726 15.0069H11.0274V17.0035H12.9726V15.0069Z" fill="currentColor" />
  </symbol>

  <symbol id="icon-triangle-down" viewBox="0 0 20 20">
    <path d="M10 13L6 8H14L10 13Z" fill="currentColor"/>
  </symbol>

  <symbol id="icon-view" viewBox="0 0 24 24" >
    <path fill-rule="evenodd" clip-rule="evenodd" d="M12 18C16.58 18 20.4592 14.0806 21.7786 12.5773C22.0738 12.241 22.0738 11.759 21.7786 11.4227C20.4592 9.91942 16.58 6 12 6C7.41995 6 3.54079 9.91942 2.22142 11.4227C1.92619 11.759 1.92619 12.241 2.22142 12.5773C3.54079 14.0806 7.41995 18 12 18ZM12 15C13.6569 15 15 13.6569 15 12C15 10.3431 13.6569 9 12 9C10.3431 9 9 10.3431 9 12C9 13.6569 10.3431 15 12 15Z" fill="currentColor"/>
  </symbol>

  <symbol id="icon-follow" viewBox="0 0 24 24" >
    <path d="M11.0616 4.59852C8.98867 2.46716 5.62771 2.46716 3.55473 4.59852C1.48175 6.72988 1.48176 10.1855 3.55474 12.3169L4.49309 13.2817L11.2831 20.263C11.6758 20.6667 12.3242 20.6667 12.7169 20.263L19.5069 13.2817L20.4453 12.3169C22.5182 10.1855 22.5182 6.72988 20.4453 4.59852C18.3723 2.46716 15.0113 2.46716 12.9384 4.59852L12 5.56331L11.0616 4.59852Z" fill="currentColor"/>
  </symbol>
  <symbol id="icon-mute" viewBox="0 0 24 24">
    <path d="M3.47559 3.47559L2.0614 4.88978L5.5538 8.38218C4.0112 9.49252 2.83736 10.7209 2.22142 11.4227C1.92619 11.7591 1.92619 12.241 2.22142 12.5774C3.54079 14.0806 7.41995 18 12 18C12.9443 18 13.8589 17.8334 14.7273 17.5557L19.1683 21.9967L20.5825 20.5825L3.47559 3.47559Z" fill="currentColor"/>
    <path d="M18.4463 15.6178C19.9888 14.5075 21.1626 13.2791 21.7786 12.5774C22.0738 12.241 22.0738 11.7591 21.7786 11.4227C20.4592 9.91944 16.58 6.00003 12 6.00003C11.0557 6.00003 10.1412 6.16664 9.27277 6.44433L18.4463 15.6178Z" fill="currentColor"/>
  </symbol>

  <symbol id="icon-resize" viewBox="0 0 20 20">
    <path d="M18 1H11C10.4477 1 10 1.44772 10 2C10 2.55229 10.4477 3 11 3L15.5858 3L11.2929 7.29289C10.9024 7.68342 10.9024 8.31658 11.2929 8.70711C11.6834 9.09763 12.3166 9.09763 12.7071 8.70711L17 4.41421L17 9C17 9.55228 17.4477 10 18 10C18.5523 10 19 9.55228 19 9V2C19 1.44772 18.5523 1 18 1Z" fill="currentColor"/>
    <path d="M2 19H9C9.55228 19 10 18.5523 10 18C10 17.4477 9.55228 17 9 17H4.41421L8.7071 12.7071C9.09763 12.3166 9.09763 11.6834 8.7071 11.2929C8.31658 10.9024 7.68341 10.9024 7.29289 11.2929L3 15.5858L3 11C3 10.4477 2.55228 10 2 10C1.44772 10 1 10.4477 1 11V18C1 18.5523 1.44772 19 2 19Z" fill="currentColor"/>
  </symbol>

  <symbol id="icon-small-close" viewBox="0 0 20 20">
    <path fill-rule="evenodd" clip-rule="evenodd" d="M5.29289 5.29289C5.68342 4.90237 6.31658 4.90237 6.70711 5.29289L10 8.58579L13.2929 5.29289C13.6834 4.90237 14.3166 4.90237 14.7071 5.29289C15.0976 5.68342 15.0976 6.31658 14.7071 6.70711L11.4142 10L14.7071 13.2929C15.0976 13.6834 15.0976 14.3166 14.7071 14.7071C14.3166 15.0976 13.6834 15.0976 13.2929 14.7071L10 11.4142L6.70711 14.7071C6.31658 15.0976 5.68342 15.0976 5.29289 14.7071C4.90237 14.3166 4.90237 13.6834 5.29289 13.2929L8.58579 10L5.29289 6.70711C4.90237 6.31658 4.90237 5.68342 5.29289 5.29289Z" fill="currentColor"/>
  </symbol>

  <symbol id="icon-feedback" viewBox="0 0 20 20">
    <path fill-rule="evenodd" clip-rule="evenodd" d="M2.8 2H17.2C18.19 2 19 2.765 19 3.7V13.9C19 14.835 18.19 15.6 17.2 15.6H4.6L1.84331 18.2035C1.52444 18.5047 1 18.2786 1 17.84V3.7C1 2.765 1.81 2 2.8 2ZM6.62189 5.62165C7.45108 4.79278 8.79547 4.79278 9.62466 5.62165L10 5.99684L10.3753 5.62165C11.2045 4.79278 12.5489 4.79278 13.3781 5.62165C14.2073 6.45051 14.2073 7.79436 13.3781 8.62323L10.7539 11.6348C10.3554 12.0922 9.64463 12.0922 9.24607 11.6348L6.62189 8.62323C5.7927 7.79436 5.7927 6.45051 6.62189 5.62165Z" fill="currentColor"/>
  </symbol>

  <symbol id="icon-close-toast" viewBox="0 0 20 20">
    <path fill-rule="evenodd" clip-rule="evenodd" d="M4.29289 4.29289C4.68342 3.90237 5.31658 3.90237 5.70711 4.29289L10 8.58579L14.2929 4.29289C14.6834 3.90237 15.3166 3.90237 15.7071 4.29289C16.0976 4.68342 16.0976 5.31658 15.7071 5.70711L11.4142 10L15.7071 14.2929C16.0976 14.6834 16.0976 15.3166 15.7071 15.7071C15.3166 16.0976 14.6834 16.0976 14.2929 15.7071L10 11.4142L5.70711 15.7071C5.31658 16.0976 4.68342 16.0976 4.29289 15.7071C3.90237 15.3166 3.90237 14.6834 4.29289 14.2929L8.58579 10L4.29289 5.70711C3.90237 5.31658 3.90237 4.68342 4.29289 4.29289Z" fill="currentColor"/>
  </symbol>

  <symbol id="notification-bubble" viewBox="0 0 12 12">
    <circle cx="6" cy="6" r="5" fill="#FF3D3D" stroke="#0D0D0D" stroke-width="2"/>
  </symbol>

  <symbol id="icon-filter" viewBox="0 0 20 20">
    <path d="M12.1204 8.85957C12.0427 8.95019 12 9.06561 12 9.18496V17.191C12 17.5627 11.6089 17.8044 11.2764 17.6382L8.27643 16.1382C8.10704 16.0535 8.00004 15.8804 8.00004 15.691V9.04501C8.00004 8.9239 7.95608 8.8069 7.87633 8.71576L2.72564 2.82925C2.44276 2.50596 2.67234 2 3.10192 2H16.9129C17.3401 2 17.5706 2.50106 17.2926 2.8254L12.1204 8.85957Z" fill="currentColor"/>
  </symbol>

  
  <symbol id="icon-author-pro" viewBox="0 0 20 20">
    <path d="M14.6258 3.25965C12.4912 6.20967 7.49405 8.85357 6.25961 9.4776C4.93826 10.0623 4.00739 11.4461 4.00001 13.0622C3.9983 14.1187 4.37258 15.3677 5.45681 15.5889C6.19656 15.7512 6.82813 15.6578 7.32878 15.31C8.09126 14.8246 8.41783 13.5019 7.58351 12.912C7.11353 12.5805 6.39364 12.8625 6.25393 13.4475C6.20423 13.6174 6.22979 13.818 6.36468 13.9138C6.49332 14.0011 6.57454 14.1513 6.5558 14.3124C6.51377 14.675 6.16277 14.8198 5.91685 14.6512C5.50309 14.3695 5.32277 13.8065 5.44034 13.2907C5.67234 12.1064 7.06553 11.5059 8.01515 12.1638C9.49495 13.1964 8.34201 16.1417 7.58351 16.7083C7.13681 17.096 6.80996 16.9442 8.47519 16.9841C11.1094 17.0473 12.561 17.0316 13.4786 14.7485C13.5805 14.4683 13.3454 14.1831 13.0691 14.2465C12.5585 14.3641 12.0252 14.417 11.6055 14.4402C11.3641 14.4538 11.1795 14.2139 11.2394 13.9649C11.2738 13.8077 11.3962 13.6896 11.5464 13.669C12.8172 13.4959 15.39 12.7374 14.9396 9.422C14.9036 9.15546 14.6165 9.0231 14.4109 9.17964C13.7887 9.65288 12.5548 10.5253 11.1951 11.1234C11.0315 11.1956 10.8424 11.1294 10.7498 10.9686C10.6317 10.774 10.7067 10.5144 10.9055 10.4198C12.6119 9.60906 13.9636 8.42355 14.5443 7.86932C14.8681 7.56018 15.1563 7.21054 15.3909 6.82071C16.2732 5.35477 16.0474 4.01997 15.6467 3.31495C15.421 2.91787 14.8925 2.89249 14.6264 3.26026L14.6258 3.25965Z" fill="#41C4C3"/>
  </symbol>


  <!-- split button -->
  <symbol id="split-button-icon-subscribe" viewBox="0 0 20 20">
    <path d="M14.6202 3H5.37981L2 7.26868L10 18L18 7.26868L14.6202 3Z" fill="currentColor"/>
  </symbol>

  <symbol id="split-button-icon-files" viewBox="0 0 24 24">
    <path d="M17 3C17 2.44772 16.5523 2 16 2H8C7.44772 2 7 2.44772 7 3C7 3.55228 7.44772 4 8 4L16 4C16.5523 4 17 3.55229 17 3Z" fill="currentColor"/>
    <path d="M19 7C19 6.44772 18.5523 6 18 6L6 6C5.44772 6 5 6.44772 5 7C5 7.55228 5.44772 8 6 8L18 8C18.5523 8 19 7.55229 19 7Z" fill="currentColor"/>
    <path d="M20 10C20.5523 10 21 10.4477 21 11C21 11.5523 20.5523 12 20 12L4 12C3.44772 12 3 11.5523 3 11C3 10.4477 3.44772 10 4 10L20 10Z" fill="currentColor"/>
    <path d="M21 15C21 14.4477 20.5523 14 20 14L4 14C3.44772 14 3 14.4477 3 15V21C3 21.5523 3.44772 22 4 22H20C20.5523 22 21 21.5523 21 21V15Z" fill="currentColor"/>
  </symbol>

  <!-- ftue/walkthrough -->
  <symbol id="icon-new" viewBox="0 0 24 24">
    <path d="M12.1562 14.1875L14.5 19L16.8437 14.1875L22 12L16.8438 9.8125L14.5 5L12.1562 9.8125L7 12L12.1562 14.1875Z" fill="#41C4C3"/>
    <path d="M4.40625 17.4063L5.5 15L6.59375 17.4063L9 18.5L6.59375 19.5938L5.5 22L4.40625 19.5937L2 18.5L4.40625 17.4063Z" fill="#41C4C3"/>
    <path d="M6.59375 6.59375L5.5 9L4.40625 6.59375L2 5.5L4.40625 4.40625L5.5 2L6.59375 4.40625L9 5.5L6.59375 6.59375Z" fill="#41C4C3"/>
  </symbol>

</svg>
