<svg id="f6434ccc-97a5-42b9-9c2f-a902a54a32ae" xmlns="http://www.w3.org/2000/svg" width="75" height="23" viewBox="0 0 75 23"><path d="M69.9,17.4a1.7,1.7,0,0,0-.7.1,2.19,2.19,0,0,0-.5.3,2.19,2.19,0,0,0-.3.5c-.1.2-.1.4-.2.6h3.2a1.63,1.63,0,0,0-.5-1.1A1.53,1.53,0,0,0,69.9,17.4Zm4.3,5.3v-.4h-.1l-.1.3-.1-.3h-.1v.4h.1v-.3l.1.2.2.1v0Zm-.7,0v-.3h.1v-.1h-.3v.1h.1Zm-3.6-6.5a5,5,0,0,1,1.2.2,2.18,2.18,0,0,1,.9.7,2.07,2.07,0,0,1,.6,1,5.07,5.07,0,0,1,.2,1.3v.5H68.2a1.45,1.45,0,0,0,.2.7,2.18,2.18,0,0,0,.4.5l.6.3a1.27,1.27,0,0,0,.6.1,2.92,2.92,0,0,0,.9-.2,4.05,4.05,0,0,0,.9-.5l.7,1a3.75,3.75,0,0,1-1.2.7,5.9,5.9,0,0,1-1.4.2,5.07,5.07,0,0,1-1.3-.2,3.51,3.51,0,0,1-1.7-1.7,3.18,3.18,0,0,1-.2-1.4,5.07,5.07,0,0,1,.2-1.3,4.37,4.37,0,0,1,.6-1,3.59,3.59,0,0,1,1-.7A7.84,7.84,0,0,1,69.9,16.2Zm-7.7,1.3a1.88,1.88,0,0,0-.8.2c-.2.1-.4.3-.6.4a2.09,2.09,0,0,0-.4.6,2,2,0,0,0-.1.8,2.2,2.2,0,0,0,.1.8c.1.2.2.5.4.6a2.09,2.09,0,0,0,.6.4,1.88,1.88,0,0,0,.8.2,2.35,2.35,0,0,0,.8-.2,1.84,1.84,0,0,0,1-1,2,2,0,0,0,.1-.8,2,2,0,0,0-.1-.8c-.1-.2-.2-.5-.4-.6a2.09,2.09,0,0,0-.6-.4A2.35,2.35,0,0,0,62.2,17.5ZM62,16.2a2.66,2.66,0,0,1,1.2.3,2.7,2.7,0,0,1,.8.7V13.3h1.4v9.4H64v-.8a2.7,2.7,0,0,1-.8.7,2.17,2.17,0,0,1-1.2.2,5,5,0,0,1-1.2-.2,3.51,3.51,0,0,1-1.7-1.7,2.74,2.74,0,0,1-.2-1.3,5.07,5.07,0,0,1,.2-1.3,2.55,2.55,0,0,1,.7-1,3.59,3.59,0,0,1,1-.7A1.92,1.92,0,0,1,62,16.2Zm-7.4,1.3a2.2,2.2,0,0,0-.8.1,1.84,1.84,0,0,0-1,1,1.7,1.7,0,0,0,0,1.6c.1.2.2.5.4.6a2.09,2.09,0,0,0,.6.4,2,2,0,0,0,.8.1,2.2,2.2,0,0,0,.8-.1,1.84,1.84,0,0,0,1-1,1.7,1.7,0,0,0,0-1.6c-.1-.2-.2-.5-.4-.6a2.09,2.09,0,0,0-.6-.4C55.1,17.6,54.8,17.5,54.6,17.5Zm0-1.3a2.77,2.77,0,0,1,1.3.3,4.13,4.13,0,0,1,1.1.7,3.59,3.59,0,0,1,.7,1,3,3,0,0,1,0,2.6,3.59,3.59,0,0,1-.7,1,4.13,4.13,0,0,1-1.1.7,3.08,3.08,0,0,1-1.3.3,2.77,2.77,0,0,1-1.3-.3,4.13,4.13,0,0,1-1.1-.7,3.59,3.59,0,0,1-.7-1,3,3,0,0,1,0-2.6,3.59,3.59,0,0,1,.7-1,4.13,4.13,0,0,1,1.1-.7A2.5,2.5,0,0,1,54.6,16.2Zm-8.1-2.9a4.48,4.48,0,0,1,2.3.5l.9.6a2.7,2.7,0,0,1,.7.8l-1.2.8a3.57,3.57,0,0,0-1.1-1,2.6,2.6,0,0,0-1.5-.4,5.07,5.07,0,0,0-1.3.2,3.59,3.59,0,0,0-1,.7,3,3,0,0,0-.7,1.1,3.18,3.18,0,0,0-.2,1.4,6.75,6.75,0,0,0,.2,1.4,4.13,4.13,0,0,0,.7,1.1,3.59,3.59,0,0,0,1,.7,2.74,2.74,0,0,0,1.3.2,4,4,0,0,0,1.5-.3,3.46,3.46,0,0,0,1.1-1l1.2.9a5,5,0,0,1-.7.8l-.9.6a4.18,4.18,0,0,1-1,.4,4.87,4.87,0,0,1-1.2.1,4.06,4.06,0,0,1-1.9-.4A4.6,4.6,0,0,1,42.2,20a5.85,5.85,0,0,1-.4-1.9,4.06,4.06,0,0,1,.4-1.9,4,4,0,0,1,1-1.5,4,4,0,0,1,1.5-1A4.36,4.36,0,0,1,46.5,13.3Zm-8.9,4.1a1.7,1.7,0,0,0-.7.1,2.19,2.19,0,0,0-.5.3,2.19,2.19,0,0,0-.3.5c-.1.2-.1.4-.2.6h3.2a1.63,1.63,0,0,0-.5-1.1A1.53,1.53,0,0,0,37.6,17.4Zm0-1.2a5,5,0,0,1,1.2.2,2.18,2.18,0,0,1,.9.7,2.07,2.07,0,0,1,.6,1,5.07,5.07,0,0,1,.2,1.3v.5H35.9a1.45,1.45,0,0,0,.2.7,2.18,2.18,0,0,0,.4.5l.6.3a1.27,1.27,0,0,0,.6.1,2.92,2.92,0,0,0,.9-.2,4.05,4.05,0,0,0,.9-.5l.7,1a3.75,3.75,0,0,1-1.2.7,5.9,5.9,0,0,1-1.4.2,5.07,5.07,0,0,1-1.3-.2,3.51,3.51,0,0,1-1.7-1.7,3.18,3.18,0,0,1-.2-1.4,5.07,5.07,0,0,1,.2-1.3,4.37,4.37,0,0,1,.6-1,3.59,3.59,0,0,1,1-.7A7.84,7.84,0,0,1,37.6,16.2Zm-4.6,0h.6c.2,0,.3.1.5.1l-.3,1.4c-.1-.1-.3-.1-.5-.2a4.33,4.33,0,0,1-.5-.1,1.27,1.27,0,0,0-.6.1c-.2.1-.3.2-.5.3a2.19,2.19,0,0,0-.3.5,1.48,1.48,0,0,0-.1.7v3.4H29.9V16.1h1.4v.7a2.7,2.7,0,0,1,.8-.7C32.3,16.3,32.7,16.2,33,16.2ZM28.1,20a5.07,5.07,0,0,1-.2,1.3,3.11,3.11,0,0,1-.7.9,4.05,4.05,0,0,1-.9.5,3.59,3.59,0,0,1-1.1.2,4.25,4.25,0,0,1-1.1-.2,2.62,2.62,0,0,1-.9-.5,2.18,2.18,0,0,1-.7-.9,2.74,2.74,0,0,1-.2-1.3V16.4h1.4v3.5a2,2,0,0,0,.1.8,2.19,2.19,0,0,0,.3.5,2.19,2.19,0,0,0,.5.3,1.85,1.85,0,0,0,1.2,0c.2-.1.3-.2.5-.3a2.19,2.19,0,0,0,.3-.5,2,2,0,0,0,.1-.8V16.4h1.4Zm-9.4-3.8a2.77,2.77,0,0,1,1.3.3,3.59,3.59,0,0,1,1,.7l-.9.9a3,3,0,0,0-.7-.5,1.88,1.88,0,0,0-.8-.2,1.48,1.48,0,0,0-.7.1,1.84,1.84,0,0,0-1,1,2,2,0,0,0-.1.8,2,2,0,0,0,.1.8c.1.2.2.5.4.6a2.09,2.09,0,0,0,.6.4,1.7,1.7,0,0,0,.7.1,1.88,1.88,0,0,0,.8-.2,1.79,1.79,0,0,0,.7-.5l.8.9a2.29,2.29,0,0,1-1,.7,2.77,2.77,0,0,1-1.3.3,3.53,3.53,0,0,1-1.4-.3,2.55,2.55,0,0,1-1-.7,3.59,3.59,0,0,1-.7-1,2.74,2.74,0,0,1-.2-1.3,5.07,5.07,0,0,1,.2-1.3,3.51,3.51,0,0,1,1.7-1.7A3.93,3.93,0,0,0,18.7,16.2Zm-7.3,1.2a1.7,1.7,0,0,0-.7.1,2.19,2.19,0,0,0-.5.3,2.19,2.19,0,0,0-.3.5c-.1.2-.1.4-.2.6h3.2a1.63,1.63,0,0,0-.5-1.1A1.33,1.33,0,0,0,11.4,17.4Zm.1-1.2a5,5,0,0,1,1.2.2,2.18,2.18,0,0,1,.9.7,2.07,2.07,0,0,1,.6,1,5.07,5.07,0,0,1,.2,1.3v.5H9.8a1.45,1.45,0,0,0,.2.7,2.18,2.18,0,0,0,.4.5l.6.3a1.27,1.27,0,0,0,.6.1,2.92,2.92,0,0,0,.9-.2,4.05,4.05,0,0,0,.9-.5l.7,1a3.75,3.75,0,0,1-1.2.7,5.9,5.9,0,0,1-1.4.2,5.07,5.07,0,0,1-1.3-.2,3.51,3.51,0,0,1-1.7-1.7,3.18,3.18,0,0,1-.2-1.4,5.07,5.07,0,0,1,.2-1.3,4.37,4.37,0,0,1,.6-1,3.59,3.59,0,0,1,1-.7A6.75,6.75,0,0,1,11.5,16.2Zm-5-.7-1.2-.6A5.85,5.85,0,0,0,4,14.7a2,2,0,0,0-.8.1,4.88,4.88,0,0,0-.7.3c-.2.1-.3.3-.4.4a1.42,1.42,0,0,0-.2.6.75.75,0,0,0,.1.5,1.38,1.38,0,0,0,.4.3,1.42,1.42,0,0,0,.6.2c.2.1.5.1.8.2l.6.1c.4.1.7.1,1.1.2a1.93,1.93,0,0,1,.9.5,2.34,2.34,0,0,1,.7.7,2,2,0,0,1,.3,1.1,2.13,2.13,0,0,1-.3,1.2,2.36,2.36,0,0,1-.8.9,6.66,6.66,0,0,1-1.2.6,5.9,5.9,0,0,1-1.4.2,3.75,3.75,0,0,1-1-.1c-.3-.1-.7-.1-1-.2a3.55,3.55,0,0,1-.9-.4,5.58,5.58,0,0,1-.8-.5l.8-1.2c.2.1.3.3.6.4s.5.2.7.3a2.35,2.35,0,0,0,.8.2,2.2,2.2,0,0,0,.8.1,2,2,0,0,0,.8-.1,4.88,4.88,0,0,0,.7-.3c.2-.1.3-.3.5-.4a1.42,1.42,0,0,0,.2-.6.89.89,0,0,0-.5-.8,5.41,5.41,0,0,0-1.5-.4L3,18.7a3.55,3.55,0,0,1-1-.2,4.05,4.05,0,0,1-.9-.5,1.34,1.34,0,0,1-.6-.7,2,2,0,0,1-.2-1.1A2.13,2.13,0,0,1,.6,15a1.76,1.76,0,0,1,.8-.9,10.91,10.91,0,0,1,1.1-.6,5.9,5.9,0,0,1,1.4-.2,4.84,4.84,0,0,1,1.8.3,10.09,10.09,0,0,1,1.5.7Z" transform="translate(0)" style="fill:#fff;fill-rule:evenodd"/><path d="M69.6,4.4a1.88,1.88,0,0,0-.8.2c-.2.1-.4.3-.6.4a1.61,1.61,0,0,0-.4.7,2.2,2.2,0,0,0-.1.8,2,2,0,0,0,.1.8,1.61,1.61,0,0,0,.4.7,2.09,2.09,0,0,0,.6.4,1.7,1.7,0,0,0,1.6,0c.2-.1.4-.3.6-.4a1.61,1.61,0,0,0,.4-.7,2.2,2.2,0,0,0,.1-.8,2,2,0,0,0-.1-.8A1.61,1.61,0,0,0,71,5a2.09,2.09,0,0,0-.6-.4A1.88,1.88,0,0,0,69.6,4.4Zm4.9,5v.1h.2C74.6,9.4,74.6,9.4,74.5,9.4Zm.1,0h0l.1.2h-.1l.1.1h-.1l-.1-.1v.1h-.1V9.3l.2.1Zm0,.5h0c.1,0,.2,0,.2-.1l.1-.1V9.5a.1.1,0,0,0-.1-.1l-.1-.1h-.2a.1.1,0,0,0-.1.1l-.1.1v.2a.1.1,0,0,0,.1.1l.2.1Zm0-.8h.2a.1.1,0,0,1,.1.1l.1.1v.4a.1.1,0,0,1-.1.1l-.1.1h-.4a.1.1,0,0,1-.1-.1l-.1-.1V9.3a.1.1,0,0,1,.1-.1l.1-.1C74.5,9.2,74.5,9.1,74.6,9.1Zm-5.1-6a2.13,2.13,0,0,1,1.2.3,2.7,2.7,0,0,1,.8.7V0h1.4V9.8H71.5V9a2.7,2.7,0,0,1-.8.7,2.13,2.13,0,0,1-1.2.3,2.77,2.77,0,0,1-1.3-.3,3.59,3.59,0,0,1-1-.7,4.13,4.13,0,0,1-.7-1.1,3.19,3.19,0,0,1-.3-1.4,3.19,3.19,0,0,1,.3-1.4A4.13,4.13,0,0,1,67.2,4a3.59,3.59,0,0,1,1-.7A5.07,5.07,0,0,1,69.5,3.1Zm-4.7,0h.6c.2,0,.3.1.5.1l-.3,1.4c-.1-.1-.3-.1-.5-.2s-.4-.1-.6-.1a1.27,1.27,0,0,0-.6.1,2.19,2.19,0,0,0-.5.3,2.19,2.19,0,0,0-.3.5,1.7,1.7,0,0,0-.1.7V9.5H61.6V3H63v.7a2.7,2.7,0,0,1,.8-.7C64.1,3.2,64.4,3.1,64.8,3.1ZM56.2,4.4a1.88,1.88,0,0,0-.8.2c-.2.1-.4.3-.6.4a1.61,1.61,0,0,0-.4.7,2.2,2.2,0,0,0-.1.8,2,2,0,0,0,.1.8,1.61,1.61,0,0,0,.4.7,2.09,2.09,0,0,0,.6.4,1.7,1.7,0,0,0,1.6,0c.2-.1.4-.3.6-.4a1.61,1.61,0,0,0,.4-.7,2.2,2.2,0,0,0,.1-.8,2,2,0,0,0-.1-.8,1.61,1.61,0,0,0-.4-.7,2.09,2.09,0,0,0-.6-.4A3.09,3.09,0,0,0,56.2,4.4Zm3.2,5.3H58V8.9a2.7,2.7,0,0,1-.8.7,2.13,2.13,0,0,1-1.2.3,2.77,2.77,0,0,1-1.3-.3,3.59,3.59,0,0,1-1-.7A4.13,4.13,0,0,1,53,7.8a3.19,3.19,0,0,1-.3-1.4A3.19,3.19,0,0,1,53,5a4.13,4.13,0,0,1,.7-1.1,3.59,3.59,0,0,1,1-.7A2.77,2.77,0,0,1,56,2.9a2.13,2.13,0,0,1,1.2.3,2.7,2.7,0,0,1,.8.7V3.1h1.4ZM49.5,3.1a3.53,3.53,0,0,1,1.4.3,2.84,2.84,0,0,1,1.1.8l-.9,1a3,3,0,0,0-.7-.5,1.88,1.88,0,0,0-.8-.2,2.35,2.35,0,0,0-.8.2,2.09,2.09,0,0,0-.6.4,1.61,1.61,0,0,0-.4.7,2.2,2.2,0,0,0-.1.8,2,2,0,0,0,.1.8,1.61,1.61,0,0,0,.4.7,2.09,2.09,0,0,0,.6.4,1.88,1.88,0,0,0,.8.2,2.92,2.92,0,0,0,.9-.2,1.79,1.79,0,0,0,.7-.5l.9,1a4.44,4.44,0,0,1-1.1.8,3.42,3.42,0,0,1-2.8,0,4.13,4.13,0,0,1-1.1-.7A4.13,4.13,0,0,1,46.4,8a3.18,3.18,0,0,1-.2-1.4,6.75,6.75,0,0,1,.2-1.4,4.13,4.13,0,0,1,.7-1.1,4.13,4.13,0,0,1,1.1-.7A2.5,2.5,0,0,1,49.5,3.1Zm-4.9,0h.6c.2,0,.3.1.5.1l-.3,1.4c-.1-.1-.3-.1-.5-.2s-.4-.1-.6-.1a1.27,1.27,0,0,0-.6.1,2.19,2.19,0,0,0-.5.3,2.19,2.19,0,0,0-.3.5,1.7,1.7,0,0,0-.1.7V9.5H41.4V3h1.4v.7a2.7,2.7,0,0,1,.8-.7C43.9,3.2,44.2,3.1,44.6,3.1Zm-8,1.2a1.48,1.48,0,0,0-.7.1,2.19,2.19,0,0,0-.5.3.85.85,0,0,0-.3.5,1.42,1.42,0,0,0-.2.6h3.4a3.34,3.34,0,0,0-.5-1.2A4.22,4.22,0,0,0,36.6,4.3Zm0-1.2a3.73,3.73,0,0,1,1.2.2,3.59,3.59,0,0,1,1,.7,2.38,2.38,0,0,1,.6,1.1,3.18,3.18,0,0,1,.2,1.4v.6H34.8a1.33,1.33,0,0,0,.3.8,2.18,2.18,0,0,0,.4.5l.6.3a1.48,1.48,0,0,0,.7.1,3.55,3.55,0,0,0,1-.2,4.05,4.05,0,0,0,.9-.5l.7,1a3.29,3.29,0,0,1-1.3.7,5.9,5.9,0,0,1-1.4.2,5.07,5.07,0,0,1-1.3-.2,4.13,4.13,0,0,1-1.1-.7A4.13,4.13,0,0,1,33.6,8a3.18,3.18,0,0,1-.2-1.4,5.9,5.9,0,0,1,.2-1.4,4.13,4.13,0,0,1,.7-1.1,3.59,3.59,0,0,1,1-.7A3.08,3.08,0,0,1,36.6,3.1ZM32.3,4.5H29.8V7.3a1.27,1.27,0,0,0,.1.6c.1.2.1.3.2.4s.2.2.3.2.3.1.4.1a2,2,0,0,0,.7-.1l.6-.3.6,1.1c-.3.2-.6.3-.9.5a3.59,3.59,0,0,1-1.1.2A2.35,2.35,0,0,1,29,9.4a2.55,2.55,0,0,1-.6-1.9V4.6H27.1V3.3h1.3v-2h1.4v2h2.5Zm-6.7.4c-.1-.1-.2-.1-.4-.2s-.3-.1-.5-.2a1.27,1.27,0,0,0-.6-.1c-.2,0-.4-.1-.6-.1a2,2,0,0,0-.9.2.6.6,0,0,0-.3.6.37.37,0,0,0,.1.3l.2.2c.1,0,.2.1.3.1s.3.1.4.1l.7.1a3.78,3.78,0,0,1,1.7.6,1.49,1.49,0,0,1,.6,1.3,2.92,2.92,0,0,1-.2.9,1.34,1.34,0,0,1-.6.7,3.55,3.55,0,0,1-.9.4,5.07,5.07,0,0,1-1.3.2h-.6c-.2,0-.5-.1-.7-.1a4.12,4.12,0,0,1-.8-.3,4.35,4.35,0,0,1-.7-.4l.7-1.1a1.38,1.38,0,0,0,.4.3c.1.1.3.1.5.2a1.27,1.27,0,0,0,.6.1c.2,0,.4.1.7.1a2.68,2.68,0,0,0,1.1-.2.68.68,0,0,0,.4-.6c0-.2-.1-.3-.3-.5a4.65,4.65,0,0,0-.9-.3L23,7.1a3,3,0,0,1-1.6-.6,1.49,1.49,0,0,1-.6-1.3,2.92,2.92,0,0,1,.2-.9,1.79,1.79,0,0,1,.5-.7,2,2,0,0,1,.8-.4,3.75,3.75,0,0,1,1.1-.1,5.9,5.9,0,0,1,1.4.2,4.33,4.33,0,0,1,1.2.5Zm-9.8-.5a1.88,1.88,0,0,0-.8.2c-.2.1-.4.3-.6.4a1.61,1.61,0,0,0-.4.7,2.2,2.2,0,0,0-.1.8,2,2,0,0,0,.1.8,1.61,1.61,0,0,0,.4.7,2.09,2.09,0,0,0,.6.4,1.7,1.7,0,0,0,1.6,0c.2-.1.4-.3.6-.4a1.61,1.61,0,0,0,.4-.7,2.2,2.2,0,0,0,.1-.8,2,2,0,0,0-.1-.8,1.61,1.61,0,0,0-.4-.7,2.09,2.09,0,0,0-.6-.4A2.35,2.35,0,0,0,15.8,4.4Zm3.3,5.3H17.7V8.9a2.7,2.7,0,0,1-.8.7,2.13,2.13,0,0,1-1.2.3,2.77,2.77,0,0,1-1.3-.3,3.59,3.59,0,0,1-1-.7,4.13,4.13,0,0,1-.7-1.1,3.19,3.19,0,0,1-.3-1.4A3.19,3.19,0,0,1,12.7,5a4.13,4.13,0,0,1,.7-1.1,3.59,3.59,0,0,1,1-.7,2.77,2.77,0,0,1,1.3-.3,2.13,2.13,0,0,1,1.2.3,2.7,2.7,0,0,1,.8.7V3.1h1.4ZM11,9.7H9.5V1.9L6.7,8.8H5.1L2.3,2V9.7H.8V.2H3.2L6,7,8.8.2h2.4V9.7Z" transform="translate(0)" style="fill:#fff;fill-rule:evenodd"/></svg>
