<svg id="eeb44ab7-a9f8-43f7-b2ff-9dcc01e5f988" width="65" height="33" viewBox="0 0 65 33" xmlns="http://www.w3.org/2000/svg"><path d="M53.9,26.7,52.6,21l-2.2,5.7Zm-9.7,5.4S49.4,19.8,50,18.4a2.6,2.6,0,0,1,1.8-1.7h3.4L58.6,32H55l-.4-2.2H49.3L48.6,32H44.2Zm.3-11.8.6-3.3a11.08,11.08,0,0,0-3.8-.7c-2.1,0-6.5,1.3-6.5,5.1s5.5,4,5.5,6.1-5,1.9-6.5.5l-.6,3.4a13.06,13.06,0,0,0,4.2.9c2,0,7-.5,7-5.4,0-4.3-5.5-3.5-5.5-6.1C38.9,20.8,39.5,18.2,44.5,20.3ZM29.2,16.6,26.7,32.1h3.9l2.5-15.5ZM13.6,18.7l3.5,13.4h4.1l6.4-15.5H23.5L19.4,27.1l-1.6-8.2Z" transform="translate(0 0)" style="fill:#fff;fill-rule:evenodd"/><path d="M19,25l-1.2-6.1s-.2-2.3-1.8-2.3H9.4v.3A13.91,13.91,0,0,1,19,25M56.3,7.3c0-1.6-.9-3.1-2.6-3.1s-2.6,1.5-2.6,3.1.9,3.1,2.6,3.1S56.3,9,56.3,7.3ZM51.1.2V4.5a2.85,2.85,0,0,1,2.5-1.4,4,4,0,0,1,4,4.2,3.94,3.94,0,0,1-4,4.2,3,3,0,0,1-2.5-1.4v1.2H49.9V.2ZM44.6,7.3c0-1.6-.9-3.1-2.6-3.1s-2.6,1.5-2.6,3.1.9,3.1,2.6,3.1S44.6,9,44.6,7.3ZM45.7.2V11.3H44.5V10.1A3,3,0,0,1,42,11.5a4,4,0,0,1-4-4.2,3.94,3.94,0,0,1,4-4.2,3.1,3.1,0,0,1,2.5,1.4V.2Zm-9,6.6a2.51,2.51,0,0,0-2.6-2.6,2.64,2.64,0,0,0-2.6,2.6Zm-6.5.5a4,4,0,0,1,3.9-4.2c2.4,0,3.8,1.9,3.8,4.3v.3H31.5a2.71,2.71,0,0,0,2.8,2.7,3.49,3.49,0,0,0,2.4-1l.7.9a4.45,4.45,0,0,1-3.2,1.3A4.09,4.09,0,0,1,30.2,7.3Zm-1.8,4h1.2V3.2H28.4ZM29,.4a.77.77,0,0,1,.7.8A.77.77,0,0,1,29,2a.71.71,0,0,1-.7-.8A.77.77,0,0,1,29,.4ZM23.3,3.3h1.3A3,3,0,0,1,27.9,0V1.1a2,2,0,0,0-2.1,2.2h2.1V4.4H25.8v7H24.6v-7H23.3Zm-1.3,8h1.2V3.2H22ZM22.6.4a.77.77,0,0,1,.7.8.77.77,0,0,1-.7.8.71.71,0,0,1-.7-.8A.77.77,0,0,1,22.6.4Zm-.9,4.1h-.5c-1,0-2.4.5-2.4,2.9v4H17.6V3.3h1.2V4.5a4,4,0,0,1,2.9-1.4ZM15.9,6.8a2.51,2.51,0,0,0-2.6-2.6,2.64,2.64,0,0,0-2.6,2.6Zm-6.5.5a4,4,0,0,1,3.9-4.2c2.4,0,3.8,1.9,3.8,4.3v.3H10.7a2.71,2.71,0,0,0,2.8,2.7,3.49,3.49,0,0,0,2.4-1l.7.9a4.45,4.45,0,0,1-3.2,1.3A4.09,4.09,0,0,1,9.4,7.3Zm-5,4L0,.2H1.6L5.3,9.8,9,.2h1.6L6.2,11.3Z" transform="translate(0 0)" style="fill:#fff;fill-rule:evenodd"/><path d="M57.9,13.4a1.7,1.7,0,0,0,.7.1c.6,0,.9-.2,1.2-.9l.5-1.2L57,3.2h1.4L61,9.8l2.7-6.6H65l-4,9.7a2.29,2.29,0,0,1-2.3,1.6c-.3,0-.7-.1-.9-.1Z" transform="translate(0 0)" style="fill:#fff;fill-rule:evenodd"/></svg>
